<?xml version="1.0" standalone="no"?>
<!DOCTYPE svg PUBLIC "-//W3C//DTD SVG 20010904//EN"
 "http://www.w3.org/TR/2001/REC-SVG-20010904/DTD/svg10.dtd">
<svg version="1.0" xmlns="http://www.w3.org/2000/svg"
 width="768.000000pt" height="768.000000pt" viewBox="0 0 768.000000 768.000000"
 preserveAspectRatio="xMidYMid meet">

<g transform="translate(0.000000,768.000000) scale(0.100000,-0.100000)"
fill="#00a2ff" stroke="none">
<path d="M3250 7240 c-18 -12 -2 -12 25 0 13 6 15 9 5 9 -8 0 -22 -4 -30 -9z"/>
<path d="M3450 7230 c-8 -5 -10 -10 -5 -10 6 0 17 5 25 10 8 5 11 10 5 10 -5
0 -17 -5 -25 -10z"/>
<path d="M3097 7213 c-9 -2 -14 -9 -11 -14 8 -13 -29 -7 -38 6 -5 6 -12 5 -20
-4 -10 -10 -10 -12 0 -7 7 4 12 1 12 -8 0 -26 21 -29 44 -7 12 12 25 19 28 16
2 -3 5 2 5 10 0 8 -1 14 -1 14 -1 -1 -9 -3 -19 -6z"/>
<path d="M3846 7208 c3 -4 16 -8 29 -8 13 0 26 4 29 8 2 4 -10 8 -29 8 -19 0
-31 -4 -29 -8z"/>
<path d="M2975 7180 c-3 -5 -13 -6 -23 -3 -14 6 -15 4 -5 -9 7 -8 9 -18 5 -22
-4 -4 7 -5 23 -1 l30 6 -30 -15 -30 -16 35 6 c34 6 66 24 43 24 -6 0 -13 9
-16 20 -5 21 -22 26 -32 10z"/>
<path d="M3227 7164 c9 -15 19 -21 21 -15 4 13 -16 41 -29 41 -5 0 -2 -12 8
-26z"/>
<path d="M3396 7158 c-19 -27 -14 -33 14 -18 17 9 19 14 10 20 -10 6 -9 9 1
13 9 3 10 6 2 6 -6 1 -19 -9 -27 -21z"/>
<path d="M3113 7149 c-44 -13 -42 -20 5 -19 51 0 71 -2 70 -9 -1 -3 3 -17 9
-31 10 -24 10 -24 17 -3 5 15 0 29 -15 47 -24 28 -35 30 -86 15z"/>
<path d="M3323 7144 c0 -8 3 -12 5 -9 3 3 11 0 18 -6 7 -6 15 -6 18 -1 3 5 -5
14 -18 20 -18 8 -23 7 -23 -4z"/>
<path d="M3292 7138 c-7 -7 -12 -19 -11 -27 0 -11 3 -10 9 4 5 11 9 14 9 8 1
-7 6 -13 12 -13 8 0 9 4 0 13 -6 8 -8 17 -4 20 3 4 4 7 2 7 -3 0 -10 -5 -17
-12z"/>
<path d="M3470 7130 c0 -5 7 -7 15 -4 8 4 15 8 15 10 0 2 -7 4 -15 4 -8 0 -15
-4 -15 -10z"/>
<path d="M3130 7100 c-25 -8 -25 -8 -2 -9 15 -1 21 -5 17 -13 -4 -7 0 -5 8 4
11 14 16 15 26 5 10 -9 11 -8 6 6 -8 18 -16 19 -55 7z"/>
<path d="M3335 7090 c-16 -7 -17 -9 -3 -9 9 -1 20 4 23 9 7 11 7 11 -20 0z"/>
<path d="M2662 7082 c-12 -2 -20 -7 -17 -12 3 -4 15 -6 27 -2 14 3 19 2 14 -6
-5 -8 1 -12 16 -12 17 0 19 3 9 9 -7 5 -16 13 -20 17 -3 5 -16 8 -29 6z"/>
<path d="M2606 7065 c-16 -12 -17 -15 -4 -15 9 0 18 7 22 15 7 18 6 18 -18 0z"/>
<path d="M3005 7059 c4 -6 0 -9 -10 -7 -11 2 -19 -4 -21 -16 -2 -14 0 -16 9
-7 16 16 55 13 65 -5 8 -15 10 -15 16 1 4 11 0 22 -11 31 -22 16 -57 19 -48 3z"/>
<path d="M2525 7050 c-8 -13 5 -13 25 0 13 8 13 10 -2 10 -9 0 -20 -4 -23 -10z"/>
<path d="M2795 7038 c-9 -14 -11 -24 -5 -26 6 -2 8 -7 5 -12 -3 -5 2 -7 11 -6
8 1 20 9 25 17 5 8 9 9 9 3 0 -17 51 -27 64 -13 8 9 8 10 -1 5 -7 -4 -13 -2
-13 3 0 6 5 11 12 11 6 0 1 9 -12 20 -31 27 -75 26 -95 -2z"/>
<path d="M3168 7053 c7 -3 16 -2 19 1 4 3 -2 6 -13 5 -11 0 -14 -3 -6 -6z"/>
<path d="M3260 7049 c0 -5 -4 -8 -8 -5 -4 2 -9 -5 -9 -16 -2 -19 -1 -19 17 -3
11 10 17 22 14 26 -7 12 -14 11 -14 -2z"/>
<path d="M2650 7023 c0 -7 -6 -12 -12 -10 -9 1 -12 -10 -10 -36 3 -32 0 -39
-17 -44 -22 -6 -30 -25 -8 -20 6 1 11 -4 9 -11 -1 -8 2 -11 10 -6 7 4 10 3 5
-1 -10 -11 -48 -14 -41 -3 3 4 0 8 -6 8 -6 0 -14 -8 -18 -17 -4 -10 -13 -19
-21 -21 -11 -2 -12 0 -2 11 17 21 -9 29 -34 11 -22 -17 -22 -17 35 -34 69 -21
70 -20 84 14 7 17 29 45 47 60 19 16 35 38 35 50 1 17 -6 13 -36 -22 -21 -23
-40 -42 -43 -42 -3 0 6 20 19 45 20 34 23 49 15 62 -6 10 -11 12 -11 6z"/>
<path d="M2670 7019 c0 -5 5 -7 10 -4 6 3 10 8 10 11 0 2 -4 4 -10 4 -5 0 -10
-5 -10 -11z"/>
<path d="M2947 6984 c-4 -28 -10 -54 -14 -58 -11 -10 -12 -37 -2 -30 5 3 7 10
4 15 -4 5 -1 9 4 9 15 0 13 -21 -3 -43 -13 -17 -15 -17 -23 -2 -8 13 -15 14
-37 5 -16 -6 -24 -15 -20 -21 4 -8 -1 -9 -17 -4 -19 5 -21 4 -9 -5 10 -8 11
-10 2 -8 -8 2 -14 8 -14 13 0 21 -20 45 -30 39 -7 -5 -9 -1 -5 9 3 10 2 17 -4
17 -6 0 -7 5 -4 10 3 6 0 10 -9 10 -24 0 -25 -23 -2 -50 l21 -25 -24 20 c-17
15 -22 16 -20 5 2 -8 -2 -25 -9 -36 -11 -21 -10 -22 39 -17 28 2 48 0 46 -4
-3 -5 9 -9 26 -9 20 0 31 -5 30 -12 -4 -18 5 -14 16 7 8 15 7 18 -6 17 -8 0
-17 7 -19 17 -2 14 2 17 14 12 34 -14 70 -12 92 5 20 15 21 18 6 33 -19 19
-21 34 -3 18 8 -6 17 -8 20 -4 4 3 12 1 20 -5 8 -7 18 -7 27 -2 11 7 12 10 2
10 -7 0 -10 4 -7 10 3 6 -1 7 -10 4 -8 -3 -26 -3 -39 0 -21 5 -25 13 -28 54
l-3 47 -8 -51z m13 -109 c-7 -9 -15 -13 -18 -10 -3 2 1 11 8 20 7 9 15 13 18
10 3 -2 -1 -11 -8 -20z"/>
<path d="M2419 6989 l-24 -20 28 17 c15 9 27 18 27 20 0 8 -8 4 -31 -17z"/>
<path d="M3080 6982 c-23 -22 -23 -24 -3 -13 12 6 25 16 28 22 13 20 0 15 -25
-9z"/>
<path d="M2461 6971 c-33 -27 -36 -51 -6 -51 9 0 12 6 8 17 -4 11 -3 14 5 9 7
-4 12 -3 12 1 0 16 57 32 71 19 9 -8 10 -8 5 2 -4 6 -2 12 4 12 27 0 -2 16
-32 18 -23 1 -43 -7 -67 -27z m67 14 c-10 -10 -49 -14 -43 -4 4 5 16 9 27 9
12 0 19 -2 16 -5z"/>
<path d="M2576 6963 c-6 -14 -5 -15 5 -6 7 7 10 15 7 18 -3 3 -9 -2 -12 -12z"/>
<path d="M2791 6964 c0 -11 3 -14 6 -6 3 7 2 16 -1 19 -3 4 -6 -2 -5 -13z"/>
<path d="M2847 6969 c7 -7 15 -10 18 -7 3 3 -2 9 -12 12 -14 6 -15 5 -6 -5z"/>
<path d="M3126 6969 c4 -7 44 0 44 7 0 2 -11 3 -24 2 -14 -1 -23 -5 -20 -9z"/>
<path d="M2337 6952 c2 -10 -7 -27 -23 -42 -15 -14 -24 -19 -20 -12 4 6 2 12
-3 12 -6 0 -11 -6 -11 -12 0 -9 -3 -8 -9 2 -6 8 -7 18 -4 24 3 5 1 6 -6 2 -6
-4 -8 -12 -5 -18 4 -6 -1 -8 -15 -3 -11 3 -29 1 -38 -5 -16 -10 -16 -11 3 -7
17 4 20 1 16 -15 -3 -12 -7 -15 -11 -9 -8 13 -68 8 -83 -7 -7 -7 -3 -12 11
-17 12 -3 21 -11 21 -16 0 -6 -5 -7 -12 -3 -7 4 -8 3 -4 -4 4 -7 19 -3 43 13
20 14 40 25 45 25 5 0 6 5 2 12 -4 7 -3 8 4 4 15 -9 83 4 77 14 -2 4 4 15 15
25 20 18 27 55 11 55 -5 0 -7 -8 -4 -18z m-137 -94 c0 -6 -3 -8 -7 -5 -3 4
-12 2 -20 -4 -8 -8 -13 -8 -13 -1 0 10 15 19 33 21 4 1 7 -4 7 -11z"/>
<path d="M3096 6953 c-6 -14 -5 -15 5 -6 7 7 10 15 7 18 -3 3 -9 -2 -12 -12z"/>
<path d="M2810 6929 c0 -5 5 -7 10 -4 6 3 10 1 10 -4 0 -13 46 -15 54 -2 3 4
-5 6 -18 4 -13 -3 -27 0 -30 6 -9 14 -26 14 -26 0z"/>
<path d="M2506 6914 c-9 -24 -7 -28 7 -15 8 6 17 8 20 4 4 -3 7 1 7 10 0 22
-26 22 -34 1z"/>
<path d="M2682 6888 c-19 -12 -31 -26 -28 -34 3 -7 0 -15 -7 -17 -9 -3 -8 -8
2 -18 9 -9 11 -9 7 -1 -4 6 -2 12 3 12 6 0 11 -6 11 -12 1 -7 12 9 26 35 14
27 24 51 22 52 -2 2 -18 -5 -36 -17z"/>
<path d="M2995 6900 c3 -5 8 -10 11 -10 2 0 4 5 4 10 0 6 -5 10 -11 10 -5 0
-7 -4 -4 -10z"/>
<path d="M2396 6874 c16 -13 16 -15 2 -10 -15 4 -16 2 -6 -14 7 -10 16 -16 20
-14 5 3 6 10 3 15 -4 5 -1 9 4 9 6 0 11 5 11 11 0 5 -4 8 -9 4 -5 -3 -12 -1
-16 5 -3 5 -11 10 -18 10 -6 0 -2 -7 9 -16z"/>
<path d="M2433 6855 c-6 -11 -9 -29 -7 -40 3 -11 5 -29 6 -40 1 -11 6 -23 11
-26 5 -4 -3 -6 -17 -6 -16 0 -26 5 -26 14 0 10 -6 13 -16 9 -8 -3 -13 -2 -10
3 3 5 -1 14 -9 21 -21 17 -32 -14 -14 -37 10 -12 10 -15 2 -9 -9 5 -13 0 -13
-18 0 -38 10 -56 32 -56 18 0 19 2 7 17 -12 14 -12 16 0 8 11 -6 13 -3 9 13
-5 18 -2 22 18 22 20 0 24 -5 24 -31 0 -26 3 -30 22 -27 18 2 24 12 29 41 3
20 3 37 0 37 -3 0 -12 9 -19 21 -11 17 -11 20 0 13 10 -6 11 -5 1 8 -7 8 -10
18 -6 22 4 4 -1 4 -11 0 -16 -6 -17 -5 -7 15 7 12 11 27 8 34 -2 7 -8 4 -14
-8z"/>
<path d="M2073 6831 c-12 -11 -24 -17 -27 -14 -3 4 -6 1 -6 -5 0 -6 9 -13 19
-17 28 -8 32 -30 15 -70 -20 -48 1 -45 26 5 23 46 25 53 8 45 -7 -3 -3 1 9 10
20 15 22 52 2 39 -5 -3 -9 2 -9 10 0 21 -12 20 -37 -3z m24 -37 c-9 -9 -28 6
-21 18 4 6 10 6 17 -1 6 -6 8 -13 4 -17z"/>
<path d="M2477 6823 c-16 -15 -5 -22 18 -11 19 9 28 9 37 0 7 -7 17 -12 23
-12 5 0 1 7 -9 15 -21 16 -58 20 -69 8z"/>
<path d="M2774 6814 c-18 -14 -18 -15 4 -4 12 6 22 13 22 15 0 8 -5 6 -26 -11z"/>
<path d="M2007 6787 c-23 -29 -21 -70 5 -93 l22 -19 -17 25 c-21 31 -22 58 0
82 9 10 14 20 12 22 -2 3 -12 -5 -22 -17z"/>
<path d="M2262 6801 c-11 -7 -10 -9 3 -15 9 -3 13 -11 9 -17 -4 -7 -3 -9 3 -6
6 4 14 -5 18 -20 4 -17 2 -29 -7 -34 -7 -4 -9 -11 -5 -15 10 -10 38 -14 32 -5
-2 4 -5 24 -7 44 -1 21 -5 37 -9 37 -4 0 -6 7 -5 16 1 20 -14 27 -32 15z"/>
<path d="M2809 6803 c-1 -5 -1 -12 0 -16 1 -4 -5 -15 -14 -23 -9 -9 -15 -11
-15 -4 0 6 -5 8 -11 4 -8 -4 -7 -9 2 -15 11 -7 9 -9 -6 -9 -24 0 -45 17 -41
34 2 6 1 8 -1 4 -3 -4 -11 -1 -20 7 -8 8 -19 12 -25 9 -5 -3 6 -18 26 -32 37
-26 42 -41 9 -27 -35 15 -58 11 -59 -13 -1 -12 -3 -25 -4 -29 -1 -5 -2 -12 0
-18 1 -5 -6 -15 -16 -22 -10 -7 -15 -16 -11 -19 3 -4 29 10 57 31 28 21 48 40
45 43 -3 4 -11 0 -16 -8 -9 -13 -10 -13 -6 0 2 8 13 14 23 13 24 -2 109 63 94
72 -6 3 -8 11 -5 16 4 5 4 9 1 9 -3 0 -7 -3 -7 -7z m-115 -84 c-31 -12 -39
-10 -19 5 11 8 24 12 29 8 5 -3 1 -9 -10 -13z"/>
<path d="M2195 6778 c-40 -23 -89 -88 -66 -88 10 0 25 30 22 43 -1 5 3 6 8 2
6 -3 15 3 20 14 14 26 51 37 62 20 4 -7 11 -10 16 -6 8 8 -15 27 -32 27 -5 -1
-19 -6 -30 -12z"/>
<path d="M2500 6778 c0 -4 7 -8 15 -8 11 0 15 -11 15 -41 0 -33 3 -40 17 -37
19 4 44 45 37 62 -2 6 -14 17 -25 24 -12 8 -18 9 -14 3 3 -6 1 -11 -4 -11 -6
0 -11 4 -11 8 0 5 -7 9 -15 9 -8 0 -15 -4 -15 -9z"/>
<path d="M2606 6761 c9 -17 17 -31 19 -31 8 0 -9 40 -21 51 -10 8 -10 3 2 -20z"/>
<path d="M2647 6771 c3 -11 12 -18 21 -16 10 2 19 4 21 4 7 1 -32 30 -41 31
-3 0 -4 -9 -1 -19z"/>
<path d="M2746 6773 c-6 -14 -5 -15 5 -6 7 7 10 15 7 18 -3 3 -9 -2 -12 -12z"/>
<path d="M2206 6754 c-11 -8 -16 -14 -10 -15 5 0 -1 -4 -13 -9 -13 -5 -23 -14
-23 -20 0 -13 83 -3 88 10 2 5 10 6 18 3 8 -3 14 1 14 11 0 9 -8 16 -18 16
-10 0 -22 4 -27 9 -6 6 -17 4 -29 -5z m10 -26 c-18 -26 -22 -17 -5 14 6 11 13
17 16 15 3 -3 -2 -16 -11 -29z"/>
<path d="M1930 6741 c0 -7 -4 -9 -10 -6 -6 4 -7 -1 -3 -11 5 -13 3 -15 -7 -9
-7 5 0 -8 16 -28 16 -21 35 -35 42 -32 7 3 11 1 8 -3 -3 -5 11 -16 30 -26 24
-11 33 -12 28 -4 -5 8 0 7 12 -2 31 -24 57 -37 94 -45 l34 -7 -17 25 c-12 19
-14 28 -5 33 7 5 8 3 3 -6 -5 -9 -4 -11 3 -6 7 4 12 14 12 22 0 8 5 12 10 9 6
-3 10 -1 10 6 0 7 6 4 14 -6 10 -14 11 -25 4 -38 -5 -10 -7 -21 -4 -25 11 -10
17 4 19 44 2 36 0 39 -23 38 -41 -2 -81 -12 -98 -26 -9 -8 -13 -8 -9 -1 5 7 0
9 -13 6 -11 -3 -27 0 -35 7 -8 7 -24 10 -35 7 -11 -3 -20 -1 -20 4 0 5 -8 9
-17 9 -12 0 -14 3 -7 8 14 9 3 42 -20 61 -11 10 -16 10 -16 2z m20 -15 c0 -3
-4 -8 -10 -11 -5 -3 -10 -1 -10 4 0 6 5 11 10 11 6 0 10 -2 10 -4z"/>
<path d="M2030 6741 c0 -6 5 -13 10 -16 6 -3 10 1 10 9 0 9 -4 16 -10 16 -5 0
-10 -4 -10 -9z"/>
<path d="M2592 6689 c-13 -16 -28 -29 -34 -29 -6 0 -20 -7 -30 -17 -12 -10
-18 -12 -18 -4 0 7 -5 9 -10 6 -6 -4 -7 -12 -3 -18 4 -7 1 -7 -9 1 -21 17 -74
12 -70 -6 1 -8 -2 -11 -8 -7 -6 3 -8 11 -5 16 4 5 -7 9 -24 9 l-30 0 6 -48 c4
-34 1 -57 -10 -78 -12 -22 -16 -25 -17 -10 0 16 -3 14 -22 -9 -11 -15 -41 -35
-65 -46 -23 -10 -43 -25 -43 -33 0 -20 56 -49 80 -41 24 8 87 84 105 130 18
41 35 46 35 10 0 -40 -34 -98 -82 -139 -24 -20 -51 -44 -61 -54 -19 -18 -48
-19 -177 -7 l-75 6 -33 -72 c-27 -58 -32 -79 -27 -110 5 -31 4 -39 -9 -39 -8
0 -19 7 -24 15 -7 14 -11 14 -33 -3 -43 -34 -148 -82 -193 -88 l-43 -6 33 -83
c41 -101 52 -183 31 -242 -16 -47 -14 -49 23 -28 48 28 56 9 13 -31 -71 -65
-255 -115 -312 -84 -30 15 -38 6 -15 -17 17 -17 17 -18 -3 -21 -12 -2 -34 3
-50 11 -17 8 -44 12 -67 9 l-39 -5 7 36 c6 33 4 36 -26 46 l-33 12 23 19 c16
14 32 18 53 13 26 -5 29 -3 27 18 -3 21 1 24 27 24 17 0 40 6 52 13 30 17 33
16 33 -13 0 -16 6 -25 15 -25 20 0 19 -19 -2 -42 -20 -23 -12 -31 50 -50 66
-20 144 19 182 92 30 59 31 135 0 225 -14 44 -33 90 -40 102 l-14 21 -36 -34
c-20 -19 -42 -34 -48 -34 -7 1 6 16 28 35 l39 34 -13 38 c-8 21 -18 41 -23 44
-19 12 -29 119 -14 151 8 17 5 17 -33 3 -42 -14 -44 -15 -60 -15 -5 0 -13 -18
-19 -41 -11 -44 -1 -56 38 -46 14 3 27 -3 41 -21 27 -35 22 -108 -15 -219 -44
-132 -81 -173 -169 -187 -31 -5 -54 -18 -87 -52 -25 -24 -78 -60 -117 -78 -80
-39 -103 -69 -103 -135 0 -49 13 -59 34 -25 25 38 75 64 123 64 90 0 99 -26
12 -32 -56 -4 -65 -8 -95 -41 -41 -44 -41 -50 -9 -71 34 -23 31 -37 -6 -29
-29 5 -30 4 -27 -23 2 -22 10 -30 36 -36 17 -5 32 -13 32 -19 0 -5 12 -21 27
-35 18 -17 23 -28 16 -35 -7 -7 -17 1 -31 25 -16 26 -28 36 -47 36 -32 0 -32
-7 7 -65 37 -55 90 -84 164 -87 39 -3 49 0 52 15 3 13 -3 17 -27 17 -52 0 -46
26 12 55 12 6 35 35 52 64 38 69 55 76 55 22 l0 -41 35 17 c25 12 34 22 29 32
-3 9 -15 52 -26 96 -11 43 -24 88 -30 98 -7 15 -7 22 3 28 9 5 23 -2 41 -21
15 -17 33 -30 41 -30 31 0 83 31 110 64 48 61 61 45 25 -30 -17 -38 -19 -47
-7 -54 8 -4 31 -19 52 -31 l39 -24 -34 -3 c-32 -3 -34 -5 -30 -37 5 -39 -10
-46 -40 -18 -29 26 -42 4 -32 -54 9 -48 9 -48 49 -48 22 0 51 4 65 8 l25 8
-28 -25 c-20 -19 -39 -26 -69 -26 -35 0 -40 -2 -35 -20 3 -13 0 -20 -9 -20 -7
0 -21 -12 -31 -26 -15 -23 -18 -24 -28 -10 -7 9 -20 16 -29 16 -9 0 -16 4 -16
9 0 25 15 41 39 41 49 0 56 15 18 39 -43 26 -57 26 -91 0 -43 -34 -68 -94 -70
-168 -1 -65 0 -66 26 -69 24 -3 27 -7 22 -31 -7 -32 18 -99 41 -107 19 -8 110
49 152 95 34 38 56 37 31 -1 -27 -41 -82 -90 -122 -108 -35 -16 -43 -17 -67
-5 -14 8 -40 31 -58 52 -30 37 -31 37 -20 8 5 -16 15 -35 21 -42 7 -9 7 -13 0
-13 -29 0 -74 105 -87 200 l-6 46 -76 12 c-62 10 -83 18 -119 47 -23 19 -52
51 -64 70 -24 38 -27 40 -64 25 -39 -14 -33 -45 13 -76 23 -15 45 -23 52 -18
8 4 9 3 5 -4 -5 -8 0 -12 13 -12 11 0 32 -5 48 -12 l28 -12 -44 -5 -44 -6 65
-76 c120 -141 160 -215 178 -332 27 -165 -44 -345 -152 -391 -36 -16 -91 -85
-82 -105 3 -9 8 -33 11 -53 3 -21 9 -38 12 -38 30 0 139 136 189 235 43 86 55
138 53 238 -1 104 14 148 61 177 47 29 81 26 111 -10 30 -35 39 -28 27 23 -6
29 -5 37 6 37 17 0 34 -31 35 -67 0 -27 1 -27 16 10 8 20 18 37 22 37 5 0 13
-19 20 -42 14 -45 14 -44 -36 -74 -25 -15 -2 -43 31 -37 33 7 41 -12 13 -34
-13 -10 -32 -31 -42 -47 l-19 -29 21 12 c12 6 33 11 47 11 l26 0 0 93 c0 146
18 356 41 474 24 126 113 422 171 567 47 119 138 303 198 401 68 112 159 221
299 360 101 100 130 134 125 149 -4 12 -2 16 5 11 18 -11 66 24 52 38 -8 8
-14 7 -23 -2 -11 -11 -10 -12 1 -6 10 5 12 4 7 -4 -4 -6 -12 -9 -17 -5 -6 3
-18 -1 -27 -9 -32 -29 -71 -32 -98 -6 -30 28 -32 45 -2 25 24 -17 58 -21 58
-8 0 5 6 9 14 9 20 0 136 93 136 109 0 18 -1 18 -28 -17z m-116 -71 c4 -7 3
-8 -4 -4 -7 4 -12 2 -12 -5 0 -7 -3 -10 -6 -6 -6 5 3 27 11 27 2 0 7 -5 11
-12z m8 -94 c3 -8 2 -12 -4 -9 -6 3 -10 10 -10 16 0 14 7 11 14 -7z m-25 -30
c-6 -8 -17 -14 -23 -14 -6 0 -4 5 4 10 13 9 13 10 0 10 -13 0 -13 2 0 9 20 13
34 2 19 -15z m-309 -215 c0 -6 -10 -29 -22 -50 -27 -49 -55 -59 -80 -29 -26
32 -22 48 5 22 l23 -21 24 44 c23 42 50 60 50 34z m-82 -121 c2 -8 -3 -20 -11
-26 -19 -16 -51 7 -42 31 8 20 49 17 53 -5z m-142 -136 c5 -25 3 -38 -8 -46
-8 -6 -19 -19 -24 -28 -9 -16 -13 -16 -44 10 -22 19 -30 31 -22 36 7 4 12 20
12 37 0 34 10 37 28 9 15 -25 37 -27 27 -2 -4 9 -10 26 -13 37 -5 20 -5 20 16
1 12 -10 25 -35 28 -54z m54 44 c0 -20 -13 -27 -30 -15 -13 8 -13 10 0 19 21
14 30 12 30 -4z m-205 -115 c7 -12 -12 -24 -25 -16 -11 7 -4 25 10 25 5 0 11
-4 15 -9z m76 -57 c29 -35 -39 -92 -80 -67 -23 15 -27 72 -5 88 20 14 65 3 85
-21z m-201 -44 c0 -36 4 -52 15 -56 27 -11 16 -32 -20 -38 -39 -8 -42 -14 -20
-55 13 -26 13 -30 0 -41 -12 -10 -18 -10 -30 0 -13 10 -19 10 -33 -4 -10 -9
-24 -16 -30 -16 -20 0 -13 55 9 84 12 15 20 28 18 30 -2 1 -16 7 -31 14 -35
15 -36 30 -2 38 23 6 25 10 19 42 -5 29 -4 34 9 28 9 -3 22 -9 30 -12 8 -3 23
3 33 14 28 31 33 26 33 -28z m290 23 c0 -35 -16 -45 -28 -19 -11 25 -7 36 15
36 7 0 13 -8 13 -17z m-81 -97 c10 -11 9 -21 -4 -45 -20 -40 -27 -39 -23 2 2
28 0 32 -20 30 -14 -2 -22 3 -22 12 0 20 53 20 69 1z m-103 -318 c-4 -34 -9
-64 -11 -67 -3 -2 -21 13 -41 34 l-36 39 31 28 c52 46 64 39 57 -34z m-358
-10 c7 -10 4 -21 -13 -41 -23 -26 -25 -26 -35 -8 -13 25 -13 27 6 45 19 19 28
20 42 4z m-132 -98 c19 0 27 -19 15 -34 -6 -7 -9 -20 -6 -29 5 -12 -4 -16 -40
-19 -26 -2 -49 1 -52 6 -14 22 -6 62 17 88 25 29 25 29 39 8 7 -11 19 -20 27
-20z m32 -408 c18 -36 12 -46 -33 -56 l-30 -7 30 25 c25 20 28 28 19 43 -7 11
-21 17 -35 15 -13 -1 -30 2 -38 7 -12 8 -12 12 -2 25 12 14 16 14 43 -2 17 -9
37 -32 46 -50z m270 46 c17 -17 15 -65 -4 -72 -21 -8 -64 -8 -64 1 0 3 8 15
18 26 16 19 16 19 -5 13 -29 -9 -42 13 -18 31 23 16 57 17 73 1z"/>
<path d="M1785 5883 c-7 -19 9 -38 24 -29 16 10 14 33 -3 39 -8 3 -17 -1 -21
-10z"/>
<path d="M1847 6682 c-10 -10 -17 -25 -17 -33 0 -12 2 -11 10 1 5 8 10 10 10
4 0 -7 -12 -20 -27 -29 -21 -14 -30 -15 -46 -6 -10 7 -22 10 -25 7 -3 -3 0 -6
6 -6 21 0 13 -20 -12 -31 -13 -6 -26 -22 -29 -35 l-4 -24 23 23 c12 13 35 29
51 37 15 8 30 18 33 21 3 3 26 11 52 18 l47 13 -22 29 c-26 34 -29 34 -50 11z"/>
<path d="M2260 6616 c0 -43 1 -44 35 -48 29 -3 35 -1 35 14 0 10 -4 18 -9 18
-4 0 -6 12 -3 28 l5 27 -24 -20 c-13 -11 -18 -13 -11 -4 13 17 7 29 -15 29 -9
0 -13 -14 -13 -44z"/>
<path d="M2588 6623 c6 -2 9 -10 6 -15 -4 -7 -2 -8 4 -4 18 11 14 26 -5 25
-11 0 -13 -3 -5 -6z"/>
<path d="M1693 6594 c-3 -8 -12 -13 -20 -10 -9 4 -11 2 -7 -6 5 -8 2 -9 -10
-5 -11 4 -15 3 -11 -4 4 -6 -2 -13 -14 -16 -12 -3 -21 -12 -21 -19 0 -14 9
-17 40 -15 10 0 11 -2 3 -5 -7 -3 -15 -5 -18 -5 -3 1 -12 -4 -19 -11 -10 -9
-11 -15 -3 -20 7 -4 20 0 29 9 17 15 18 14 19 -18 1 -26 4 -21 10 21 4 30 6
61 4 68 -2 6 0 12 5 12 5 0 14 9 20 20 6 11 8 20 5 20 -3 0 -8 -7 -12 -16z"/>
<path d="M1725 6600 c3 -5 8 -10 11 -10 2 0 4 5 4 10 0 6 -5 10 -11 10 -5 0
-7 -4 -4 -10z"/>
<path d="M1898 6603 c-27 -7 -21 -20 8 -20 19 0 23 2 13 9 -11 7 -9 8 5 6 11
-2 18 -7 17 -13 -1 -5 6 -13 16 -17 11 -5 4 -6 -18 -3 -46 6 -79 -15 -57 -35
18 -17 9 -92 -15 -118 -25 -27 -21 -35 15 -28 48 10 88 52 89 95 0 20 4 44 8
54 6 17 8 17 25 -2 10 -11 21 -35 25 -53 7 -32 9 -33 49 -30 48 4 51 -2 20
-36 -23 -23 -23 -24 -3 -39 38 -29 100 -53 135 -52 l35 1 -37 12 c-48 15 -50
17 -53 73 -3 58 6 79 40 87 29 7 34 26 7 26 -10 0 -51 11 -91 25 -41 13 -79
22 -85 18 -6 -3 -8 -3 -4 2 4 4 -16 16 -45 26 -53 19 -68 20 -99 12z m36 -174
c3 -3 -5 -5 -19 -5 -13 0 -22 3 -19 7 4 8 30 6 38 -2z"/>
<path d="M1850 6575 c-8 -9 -8 -15 -2 -15 12 0 26 19 19 26 -2 2 -10 -2 -17
-11z"/>
<path d="M1731 6501 c-23 -17 -51 -81 -50 -111 0 -8 3 -10 5 -4 2 6 18 8 34 6
23 -3 30 0 30 12 0 11 -5 14 -12 10 -7 -4 -8 -3 -4 5 4 6 3 18 -4 26 -15 18 5
31 24 16 10 -8 17 -7 26 4 11 13 10 15 -6 10 -10 -3 -5 1 11 9 17 8 37 15 45
16 11 0 10 3 -4 11 -14 9 -20 8 -27 -2 -6 -10 -9 -11 -9 -1 0 18 -31 14 -59
-7z"/>
<path d="M1576 6475 c1 -21 -5 -43 -15 -53 -9 -10 -12 -12 -8 -5 5 6 10 23 11
37 l3 25 -29 -20 c-26 -19 -31 -48 -5 -32 8 5 8 2 0 -9 -7 -8 -9 -19 -5 -23 4
-5 1 -5 -6 -1 -7 4 -10 12 -7 17 13 20 -17 7 -40 -17 -23 -25 -24 -28 -8 -39
15 -11 14 -12 -12 -8 -23 3 -27 2 -15 -6 11 -8 12 -11 2 -11 -7 0 -10 -4 -7
-10 3 -6 -1 -7 -10 -4 -13 5 -15 2 -9 -20 4 -16 2 -26 -5 -26 -6 0 -10 -5 -8
-12 1 -8 -9 -12 -25 -12 -15 1 -25 -3 -22 -7 3 -5 0 -9 -6 -9 -6 0 -8 -5 -4
-12 4 -6 3 -8 -3 -5 -6 4 -27 -9 -46 -28 -19 -19 -37 -31 -41 -28 -3 3 -6 1
-6 -5 0 -15 5 -15 38 2 33 17 75 11 98 -15 17 -18 17 -22 0 -74 -17 -54 -17
-56 4 -86 21 -28 23 -62 9 -107 -2 -7 10 -19 29 -27 l33 -15 15 37 c17 40 32
119 26 144 -2 11 -11 14 -33 11 -20 -3 -34 0 -40 9 -10 17 8 39 32 39 25 0 24
6 -6 42 -14 16 -25 42 -26 56 0 15 -1 45 -2 66 -2 33 4 45 32 73 19 18 38 33
43 33 5 0 6 4 3 10 -3 5 0 7 8 4 8 -3 18 0 22 5 10 17 25 3 25 -25 0 -16 -6
-24 -18 -24 -10 0 -27 -6 -38 -14 -16 -13 -11 -13 41 -1 54 13 85 34 85 58 0
4 -6 5 -12 1 -10 -6 -10 -4 0 7 19 21 15 82 -8 102 -11 9 -20 24 -20 32 0 8
-3 15 -8 15 -4 0 -7 -16 -6 -35z m-95 -98 c-10 -9 -11 -8 -5 6 3 10 9 15 12
12 3 -3 0 -11 -7 -18z"/>
<path d="M1827 6479 c-14 -8 -17 -18 -12 -36 4 -19 1 -26 -14 -30 -23 -6 -19
-23 5 -23 17 0 54 57 54 83 0 19 -7 21 -33 6z"/>
<path d="M1701 6356 c-53 -28 -111 -99 -111 -135 0 -28 18 -82 39 -120 12 -22
18 -23 76 -19 62 5 162 43 196 74 10 9 30 40 44 70 32 66 28 101 -12 106 -39
4 -40 25 -1 37 30 10 30 10 3 5 -16 -3 -47 -7 -68 -9 -21 -2 -54 -6 -73 -9
-27 -6 -34 -4 -34 9 0 19 -6 18 -59 -9z m99 -57 c0 -22 4 -38 8 -35 9 6 87
-15 98 -27 4 -4 -12 -7 -35 -7 l-42 0 16 -30 c8 -16 15 -37 15 -46 0 -15 -3
-15 -23 4 -28 26 -57 29 -57 5 0 -10 -4 -24 -9 -32 -8 -12 -12 -12 -25 -2 -9
8 -16 22 -16 32 0 15 -6 17 -35 12 -27 -4 -35 -2 -35 9 0 9 7 21 15 28 20 16
19 29 -2 53 -18 20 -17 20 22 15 38 -5 43 -3 63 28 29 45 42 43 42 -7z"/>
<path d="M1395 6290 c-3 -5 -1 -10 4 -10 6 0 11 5 11 10 0 6 -2 10 -4 10 -3 0
-8 -4 -11 -10z"/>
<path d="M1370 6266 c0 -2 7 -7 16 -10 8 -3 12 -2 9 4 -6 10 -25 14 -25 6z"/>
<path d="M4158 6151 c-4 -29 -12 -59 -18 -66 -6 -8 -9 -28 -5 -47 4 -25 -3
-54 -29 -116 -49 -117 -115 -196 -246 -293 -115 -85 -189 -163 -225 -234 -17
-33 -34 -62 -38 -63 -4 -2 -2 -11 5 -20 10 -12 10 -14 1 -8 -7 4 -13 3 -13 -2
0 -6 -8 -13 -17 -16 -15 -6 -15 -5 -2 11 18 21 19 45 1 51 -8 2 -10 -2 -6 -15
4 -10 -8 5 -26 32 -18 28 -34 51 -35 53 -2 2 -52 -45 -112 -105 -92 -91 -111
-116 -122 -156 -16 -55 -10 -136 13 -187 15 -34 15 -34 10 -5 l-5 30 15 -25
c8 -14 15 -20 16 -13 0 6 9 10 19 8 14 -2 18 1 15 10 -4 9 1 13 13 11 10 -2
12 -1 5 1 -7 3 -10 9 -7 14 4 5 2 9 -3 9 -6 0 -13 -7 -16 -16 -3 -8 -10 -13
-15 -10 -5 4 -11 0 -14 -6 -2 -7 -4 2 -3 19 1 33 16 48 16 16 0 -13 3 -14 12
-5 14 14 52 16 43 2 -3 -5 -1 -10 4 -10 6 0 11 5 11 10 0 6 5 10 10 10 7 0 7
-6 0 -20 -9 -16 -8 -20 5 -20 8 0 15 -6 15 -12 0 -7 7 -2 16 10 9 13 13 31 10
40 -5 14 -3 13 9 -2 14 -19 15 -18 25 5 10 23 10 23 6 2 -3 -16 1 -23 11 -23
8 0 12 4 9 9 -4 5 0 11 6 14 10 3 10 7 1 17 -6 7 -9 19 -6 26 3 8 0 14 -7 14
-6 0 -8 5 -5 10 9 15 65 12 81 -5 19 -19 56 -3 48 20 -4 8 -1 15 7 15 7 0 10
3 7 6 -4 3 -15 1 -25 -4 -15 -9 -19 -7 -20 9 -1 11 2 17 8 14 5 -4 17 1 26 10
14 14 14 21 4 37 -9 15 -9 23 -1 33 7 8 8 20 4 27 -4 7 5 2 19 -11 15 -14 27
-34 27 -45 0 -16 2 -18 9 -7 6 9 10 1 13 -25 3 -22 1 -40 -4 -42 -4 -2 -8 -16
-7 -30 0 -23 1 -24 8 -7 7 16 9 14 14 -14 9 -46 9 -111 -1 -111 -4 0 -9 -12
-10 -26 -1 -14 -4 -30 -7 -35 -10 -16 -58 -5 -83 18 -14 13 -31 23 -38 23 -8
0 -14 5 -14 12 0 9 -3 9 -12 0 -15 -15 -42 -16 -32 0 4 7 3 8 -5 4 -6 -4 -9
-11 -6 -15 2 -5 -10 -16 -28 -26 -33 -17 -77 -71 -77 -93 0 -7 -11 -5 -30 6
-45 26 -66 8 -63 -53 3 -43 1 -46 -20 -43 -20 3 -23 11 -31 76 -4 40 -10 71
-13 68 -8 -7 -42 27 -36 36 3 5 -1 8 -8 7 -21 -3 -50 12 -43 23 4 6 9 6 14 -2
14 -23 16 5 3 40 -10 27 -12 29 -10 10 2 -28 -11 -44 -74 -87 -92 -64 -125
-124 -114 -210 8 -63 4 -72 -30 -65 -21 4 -25 10 -25 41 0 21 9 57 21 81 16
33 20 57 17 95 -5 61 -27 93 -104 153 -45 35 -53 48 -66 99 l-15 58 -8 -55
c-8 -56 -12 -61 -98 -132 -24 -20 -52 -53 -61 -72 -22 -47 -20 -114 4 -154 19
-31 27 -101 14 -115 -4 -3 -15 -2 -25 3 -12 7 -19 6 -22 -3 -4 -8 -6 -8 -6 2
-1 20 -61 -37 -61 -58 0 -13 -2 -13 -12 1 -7 8 -31 28 -53 43 -22 16 -46 36
-52 44 -12 13 -14 13 -25 0 -7 -8 -32 -27 -55 -42 -65 -41 -77 -65 -70 -145 3
-37 9 -77 13 -90 6 -21 5 -22 -20 -11 -36 17 -42 9 -45 -71 -2 -23 -3 -23 -12
-6 -11 18 -7 121 6 163 6 18 2 25 -19 34 -36 17 -40 49 -33 293 5 185 8 213
25 235 10 15 29 27 41 29 31 5 26 19 -9 26 -40 8 -48 29 -55 159 -4 59 -10
107 -15 107 -8 0 -19 -80 -21 -155 -2 -77 -10 -97 -48 -110 l-34 -11 31 -13
c45 -19 52 -55 52 -286 0 -248 -4 -275 -37 -275 -22 0 -24 -3 -17 -22 4 -13 9
-79 10 -148 1 -69 0 -116 -3 -105 -7 26 -40 58 -53 50 -6 -3 -10 -2 -10 4 0 5
6 12 13 14 9 4 9 6 0 6 -6 1 -15 -3 -18 -9 -14 -23 -25 -7 -25 34 0 36 -6 50
-31 75 -36 36 -47 38 -99 11 -22 -11 -51 -20 -64 -20 -25 0 -25 -1 -20 -57 18
-211 44 -344 102 -513 100 -293 204 -490 385 -732 293 -390 668 -679 1117
-860 454 -184 938 -230 1388 -134 697 149 1277 502 1683 1023 97 125 133 175
134 192 2 25 27 93 32 88 2 -3 -3 -22 -11 -42 -15 -34 -15 -36 0 -24 17 14 45
64 42 76 -1 7 5 34 19 86 2 9 9 14 15 11 7 -5 8 -2 3 6 -5 8 -2 17 6 24 21 17
79 136 79 163 0 13 4 22 9 19 5 -3 14 9 21 27 6 17 16 40 21 49 5 10 18 46 30
80 11 35 23 70 26 78 14 38 10 45 -26 42 l-36 -4 3 50 c4 49 3 50 -41 81 -25
17 -50 31 -55 31 -21 0 -73 -33 -97 -61 -22 -28 -25 -39 -25 -116 l0 -86 -37
7 c-21 3 -44 6 -51 6 -11 0 -13 45 -11 223 1 150 -2 230 -10 244 -6 12 -31 29
-56 38 -42 16 -46 16 -70 1 l-25 -16 0 -161 0 -161 -31 6 c-17 3 -42 6 -55 6
-17 0 -25 7 -30 25 -8 34 -31 37 -282 33 l-212 -3 0 72 c0 70 -1 73 -30 88
-17 9 -30 24 -30 34 0 28 -37 70 -96 107 -29 19 -56 43 -59 55 l-7 21 -15 -22
c-9 -12 -40 -37 -70 -56 -33 -22 -60 -48 -70 -70 -10 -20 -24 -34 -34 -34 -16
0 -19 12 -21 92 -3 92 -3 93 -35 113 -25 15 -32 27 -33 51 0 47 -11 94 -21 89
-4 -3 -11 -27 -14 -53 -4 -26 -9 -56 -12 -66 -5 -19 -6 -19 -22 1 -28 35 -49
36 -66 3 -9 -17 -11 -30 -5 -30 6 0 10 -35 10 -90 l0 -90 -89 0 c-84 0 -89 1
-95 23 -3 12 -5 117 -5 232 1 116 4 200 6 188 2 -13 8 -23 13 -23 5 0 7 -8 4
-17 -5 -15 -3 -15 10 1 12 15 16 16 17 5 1 -21 17 22 18 48 1 13 -8 27 -20 34
-18 9 -26 7 -48 -9 l-26 -19 -20 41 c-22 45 -97 99 -140 99 -14 0 -44 -16 -69
-37 -38 -31 -46 -34 -56 -21 -28 34 -117 2 -148 -54 l-20 -35 -10 24 c-6 14
-13 33 -16 43 -3 9 -17 22 -31 27 -21 8 -25 15 -21 33 3 12 3 17 1 11 -4 -7
-20 3 -41 24 l-35 35 38 91 c33 79 38 101 38 171 0 95 -21 140 -115 250 -58
66 -60 71 -60 124 0 55 0 55 17 31 12 -17 13 -25 5 -28 -7 -2 -12 -10 -12 -17
0 -18 70 -75 90 -74 10 0 11 2 2 6 -6 2 -10 9 -6 14 3 5 -2 9 -10 9 -8 0 -18
5 -22 12 -5 7 -2 9 7 4 8 -4 5 0 -5 8 -11 9 -26 16 -34 16 -7 0 -10 5 -7 11 4
6 13 8 20 5 27 -10 231 -174 268 -216 44 -48 107 -172 107 -210 0 -22 2 -20
21 15 12 22 34 54 50 70 35 37 36 55 5 120 -31 67 -90 131 -206 225 -128 103
-204 202 -240 313 -25 76 -26 83 -11 100 15 17 14 20 -4 33 -14 11 -21 31 -25
72 l-5 57 -7 -54z m-18 -501 c0 -37 -30 -94 -70 -131 -22 -20 -36 -39 -33 -43
4 -3 1 -6 -5 -6 -7 0 -12 -8 -12 -17 0 -15 -2 -14 -15 3 -13 18 -14 18 -8 -5
3 -13 2 -22 -3 -19 -11 7 -35 -17 -27 -26 4 -3 1 -6 -6 -6 -7 0 -11 -6 -8 -14
3 -8 -2 -20 -11 -27 -14 -11 -15 -11 -5 1 9 9 9 19 2 33 -8 14 -8 18 0 13 7
-4 11 1 11 13 0 12 5 21 12 21 6 0 9 3 5 6 -10 10 26 42 42 37 14 -4 14 -3 1
6 -15 10 -7 26 13 26 6 0 16 10 23 22 6 13 14 20 17 17 3 -4 12 0 19 8 20 21
40 59 34 65 -2 3 -12 -9 -21 -26 -9 -18 -20 -29 -25 -26 -11 7 -51 -31 -42
-40 4 -3 -1 -3 -10 0 -9 4 -18 0 -22 -10 -3 -10 -12 -15 -21 -11 -8 3 -17 1
-20 -4 -3 -4 0 -10 5 -12 6 -2 -3 -15 -20 -30 -29 -26 -31 -26 -24 -5 6 20 5
20 -10 8 -9 -8 -15 -20 -12 -27 3 -8 0 -11 -10 -7 -24 9 65 94 90 86 14 -4 18
-1 13 9 -3 9 4 21 16 29 28 19 111 92 115 102 7 15 22 6 22 -13z m-269 -243
c-10 -9 -11 -8 -5 6 3 10 9 15 12 12 3 -3 0 -11 -7 -18z m-20 -17 c5 0 9 -7 9
-16 0 -8 -4 -13 -9 -10 -5 4 -12 0 -15 -6 -3 -7 -3 -2 0 11 5 19 3 23 -10 18
-14 -6 -15 -4 -4 16 10 19 13 20 16 5 2 -10 8 -18 13 -18z m-308 -51 c2 -8 6
-19 9 -24 4 -6 3 -17 -3 -25 -6 -11 -9 -11 -10 -2 -2 12 -5 26 -9 40 -1 4 -2
11 -1 16 1 5 -6 6 -15 2 -14 -5 -15 -4 -4 9 12 14 7 19 -13 16 -5 -1 -5 4 -2
10 8 13 45 -19 48 -42z m399 -26 c-3 -16 -7 -22 -10 -15 -4 13 4 42 11 42 2 0
2 -12 -1 -27z m-322 -37 c-13 -13 -13 -29 0 -21 6 3 10 -3 10 -15 0 -12 -5
-18 -10 -15 -11 7 -8 -30 3 -41 9 -10 9 -24 0 -24 -5 0 -14 12 -20 27 -10 20
-10 30 -1 40 9 11 9 16 -1 23 -9 5 -10 9 -2 14 6 4 9 11 7 15 -3 4 2 8 10 8
10 0 11 -4 4 -11z m-220 -51 c0 -5 -5 -3 -10 5 -8 12 -10 12 -10 1 0 -8 -2
-12 -5 -9 -3 3 -2 13 1 22 5 14 9 15 15 4 5 -7 9 -17 9 -23z m-49 -18 c-10 -9
-11 -8 -5 6 3 10 9 15 12 12 3 -3 0 -11 -7 -18z m526 -9 c-3 -7 -5 -2 -5 12 0
14 2 19 5 13 2 -7 2 -19 0 -25z m36 -13 c-3 -9 -8 -14 -10 -11 -3 3 -2 9 2 15
9 16 15 13 8 -4z m40 -35 c3 -11 1 -18 -4 -14 -5 3 -9 12 -9 20 0 20 7 17 13
-6z m-470 -57 c-7 -2 -19 -2 -25 0 -7 3 -2 5 12 5 14 0 19 -2 13 -5z m512 -53
c20 -39 19 -57 -5 -63 -15 -4 -19 -1 -17 14 2 10 6 22 10 25 12 13 8 26 -7 21
-10 -4 -12 0 -9 14 7 25 10 24 28 -11z m-551 -35 c3 -8 1 -15 -4 -15 -6 0 -10
7 -10 15 0 8 2 15 4 15 2 0 6 -7 10 -15z m499 -80 c-3 -9 -8 -14 -10 -11 -3 3
-2 9 2 15 9 16 15 13 8 -4z m-66 -61 c2 -6 -5 -22 -16 -35 l-19 -24 0 38 c0
29 4 37 16 35 8 -2 17 -8 19 -14z m1040 -86 c-3 -8 -6 -5 -6 6 -1 11 2 17 5
13 3 -3 4 -12 1 -19z m-2111 -52 c3 -8 1 -24 -6 -35 -11 -21 -11 -21 -32 -2
-12 12 -18 26 -15 35 8 20 46 21 53 2z m1365 -9 c-62 -32 -86 -67 -86 -127 0
-57 24 -96 76 -122 43 -21 76 -22 113 -3 45 23 42 11 -5 -24 -76 -55 -157 -51
-218 11 -39 40 -55 88 -47 143 14 88 79 145 166 145 l45 -1 -44 -22z m-1443
-4 c-5 -26 -38 -29 -38 -4 0 15 6 21 21 21 14 0 19 -5 17 -17z m147 7 c3 -6 3
-19 0 -30 -5 -16 -10 -18 -26 -10 -25 14 -25 50 0 50 11 0 23 -5 26 -10z m685
-40 c-12 -13 -17 -14 -23 -3 -5 7 -5 23 -2 34 7 20 8 20 24 3 15 -16 15 -20 1
-34z m-95 20 c3 -5 -1 -10 -9 -10 -9 0 -16 5 -16 10 0 6 4 10 9 10 6 0 13 -4
16 -10z m1275 -10 c0 -23 -8 -25 -32 -6 -20 15 -14 26 14 26 11 0 18 -7 18
-20z m90 11 c0 -10 -26 -9 -36 2 -4 4 2 7 14 7 12 0 22 -4 22 -9z m-2063 -36
c0 -8 -4 -12 -9 -9 -5 3 -6 10 -3 15 9 13 12 11 12 -6z m600 -152 c-2 -21 -4
-4 -4 37 0 41 2 58 4 38 2 -21 2 -55 0 -75z m-327 52 c0 -14 -4 -25 -9 -25 -4
0 -6 11 -3 25 2 14 6 25 8 25 2 0 4 -11 4 -25z m-230 -6 c11 -8 12 -12 3 -16
-18 -7 -16 -23 2 -23 8 0 15 -9 15 -21 0 -11 5 -17 10 -14 6 3 10 1 10 -5 0
-7 7 -10 18 -6 10 4 7 -2 -8 -14 -27 -21 -21 -27 10 -10 16 9 18 8 13 -6 -5
-12 -3 -15 6 -9 7 4 11 18 8 31 -2 13 0 21 4 18 5 -3 9 -12 9 -20 0 -8 4 -13
8 -10 5 3 9 -8 9 -24 0 -16 -4 -27 -9 -24 -12 8 -10 -10 5 -26 10 -12 9 -12
-5 -1 -10 7 -18 21 -18 30 0 12 -2 13 -9 3 -6 -10 -10 -9 -14 7 -3 14 -10 19
-21 15 -9 -3 -25 5 -41 20 -28 28 -33 49 -10 40 8 -4 15 -2 15 4 0 5 -6 12
-14 15 -14 6 -30 -7 -37 -30 -3 -8 -9 -9 -18 -3 -12 7 -12 13 -3 32 l12 23 -6
-25 c-6 -23 -5 -24 10 -11 11 9 15 23 12 36 -8 33 6 44 34 24z m177 -4 c0 -8
-4 -12 -9 -9 -5 3 -6 10 -3 15 9 13 12 11 12 -6z m-237 -10 c-7 -9 -15 -13
-17 -11 -7 7 7 26 19 26 6 0 6 -6 -2 -15z m87 -7 c-3 -8 -6 -5 -6 6 -1 11 2
17 5 13 3 -3 4 -12 1 -19z m-284 -134 c4 -5 13 -2 18 6 10 13 10 13 6 0 -2 -8
-1 -24 4 -35 6 -17 8 -15 9 10 1 26 3 27 10 10 4 -11 6 -31 3 -45 -5 -24 -4
-24 11 4 19 34 20 40 4 30 -7 -5 -8 -3 -3 5 4 8 11 9 16 4 15 -15 -20 -75 -40
-69 -12 5 -11 2 3 -9 23 -17 21 -20 -18 -29 -25 -6 -28 -5 -21 11 14 32 18 93
6 93 -7 0 -10 -13 -8 -35 3 -20 1 -37 -3 -40 -8 -5 -7 -10 -14 115 -2 57 -2
72 2 38 4 -31 11 -60 15 -64z m624 -26 c-2 -24 -4 -5 -4 42 0 47 2 66 4 43 2
-24 2 -62 0 -85z m-224 42 c3 -36 1 -58 -3 -49 -10 17 -14 51 -12 93 3 46 9
27 15 -44z m-288 50 c3 -5 1 -10 -4 -10 -6 0 -11 5 -11 10 0 6 2 10 4 10 3 0
8 -4 11 -10z m89 -11 c6 -5 -1 -12 -15 -17 -13 -5 -26 -6 -29 -2 -3 4 -12 10
-20 13 -11 4 -10 6 5 7 l20 1 -20 10 c-15 7 -11 7 15 3 19 -3 39 -10 44 -15z
m213 -21 c-3 -7 -5 -2 -5 12 0 14 2 19 5 13 2 -7 2 -19 0 -25z m103 -30 c0
-13 -5 -30 -10 -38 -14 -22 -30 0 -23 33 6 33 33 37 33 5z m2144 6 c8 -20 -2
-54 -14 -54 -15 0 -22 20 -16 46 7 28 21 31 30 8z m-2009 -44 c3 -5 1 -10 -4
-10 -6 0 -11 5 -11 10 0 6 2 10 4 10 3 0 8 -4 11 -10z m44 -5 c8 0 16 -6 19
-12 2 -8 -5 -13 -17 -13 -12 0 -21 6 -22 13 0 10 -2 10 -6 0 -2 -7 -11 -13
-19 -13 -11 0 -10 4 4 18 9 10 19 16 22 13 3 -4 11 -6 19 -6z m121 -5 c0 -17
-7 -20 -47 -20 -35 0 -44 3 -33 10 8 5 28 10 43 10 16 0 26 4 22 10 -3 6 -1
10 4 10 6 0 11 -9 11 -20z m-987 3 c3 -5 8 -55 12 -112 5 -75 4 -102 -4 -97
-6 4 -11 3 -11 -3 0 -5 6 -12 13 -14 6 -3 -6 -6 -28 -6 l-40 -1 1 98 c1 53 4
107 8 120 7 21 40 31 49 15z m98 -16 c1 -12 3 -66 5 -119 3 -95 2 -98 -19 -98
-16 0 -18 3 -9 9 10 6 9 10 -7 14 -15 3 -21 0 -21 -11 0 -8 -2 -13 -5 -10 -4
3 -3 18 1 33 5 20 9 23 15 13 6 -9 9 -7 9 10 0 12 -5 21 -12 20 -9 -2 -13 16
-14 61 -2 84 2 96 32 99 18 1 24 -3 25 -21z m46 -29 c-2 -13 -4 -5 -4 17 -1
22 1 32 4 23 2 -10 2 -28 0 -40z m-574 27 c4 -8 2 -17 -3 -20 -6 -4 -10 3 -10
14 0 25 6 27 13 6z m2180 -71 c9 -17 14 -34 11 -36 -5 -6 40 -25 71 -30 16 -3
11 -9 -24 -28 -37 -21 -47 -34 -61 -73 l-16 -49 -17 54 c-15 47 -22 56 -57 72
-49 22 -51 36 -4 36 31 0 37 4 50 35 7 19 14 51 15 72 1 37 1 37 8 8 4 -16 15
-44 24 -61z m-1586 -111 c-2 -21 -4 -4 -4 37 0 41 2 58 4 38 2 -21 2 -55 0
-75z m-20 60 c-3 -10 -5 -4 -5 12 0 17 2 24 5 18 2 -7 2 -21 0 -30z m-497 12
c0 -8 -2 -15 -4 -15 -2 0 -6 7 -10 15 -3 8 -1 15 4 15 6 0 10 -7 10 -15z m17
-27 c-3 -7 -5 -2 -5 12 0 14 2 19 5 13 2 -7 2 -19 0 -25z m1358 -54 c66 -34
159 -76 207 -93 241 -84 356 -163 449 -309 l28 -44 1 -211 c0 -117 1 -386 2
-600 0 -346 4 -414 23 -395 3 2 7 101 10 219 3 138 2 207 -4 194 -7 -15 -10
-7 -10 35 -1 30 -3 149 -6 265 -2 115 -1 212 4 215 5 3 11 64 14 136 6 154 14
176 105 275 71 77 159 137 257 174 197 76 239 94 349 154 111 61 120 64 130
47 43 -73 75 -111 97 -114 13 -2 28 -10 32 -18 4 -8 19 -14 32 -14 20 0 38
-21 98 -112 81 -123 274 -440 456 -750 9 -15 13 -29 11 -31 -3 -2 -151 -77
-330 -167 -333 -166 -756 -382 -845 -432 -27 -15 -73 -40 -102 -54 -39 -20
-57 -37 -77 -74 -53 -97 -103 -117 -267 -108 -109 7 -144 25 -182 96 -20 36
-44 62 -80 86 -61 40 -1166 600 -1254 635 -18 8 -33 17 -33 21 0 7 16 36 160
275 43 72 114 191 156 265 164 285 214 350 271 350 18 0 33 4 33 9 0 4 11 20
25 35 13 14 38 46 55 71 36 52 22 54 185 -31z m-801 -76 c4 -19 13 -28 26 -28
10 0 22 -4 25 -10 3 -6 -5 -10 -18 -10 -25 0 -37 -16 -37 -51 0 -11 -4 -17
-10 -14 -5 3 -10 17 -10 30 0 19 -7 26 -27 31 -48 10 -49 11 -14 21 28 7 37
16 44 44 10 35 11 34 21 -13z m3101 -27 l30 -3 -35 -13 c-29 -10 -36 -18 -40
-46 l-6 -34 -8 33 c-6 25 -16 36 -39 45 l-32 11 32 8 c25 6 33 15 39 40 l7 32
11 -34 c9 -28 17 -36 41 -39z m412 -358 c9 -7 30 -13 46 -13 16 0 26 -4 22
-10 -3 -5 -16 -10 -29 -10 -38 0 -55 -22 -64 -80 l-8 -55 -14 60 c-15 59 -16
60 -59 71 l-43 10 41 12 c43 13 61 35 61 75 0 43 15 40 22 -5 4 -23 15 -49 25
-55z m-2010 -185 c-3 -7 -5 -2 -5 12 0 14 2 19 5 13 2 -7 2 -19 0 -25z m10
-755 c-3 -10 -5 -2 -5 17 0 19 2 27 5 18 2 -10 2 -26 0 -35z"/>
<path d="M2780 4550 c0 -5 5 -10 10 -10 6 0 10 5 10 10 0 6 -4 10 -10 10 -5 0
-10 -4 -10 -10z"/>
<path d="M2810 4471 c0 -12 28 -22 35 -12 3 5 -2 12 -11 15 -21 8 -24 8 -24
-3z"/>
<path d="M2718 4453 c6 -2 18 -2 25 0 6 3 1 5 -13 5 -14 0 -19 -2 -12 -5z"/>
<path d="M3070 4047 c-20 -16 -71 -84 -90 -122 -31 -58 -249 -432 -319 -548
-39 -64 -71 -121 -71 -125 0 -5 -10 -22 -22 -37 -16 -21 -19 -30 -9 -33 7 -2
67 -32 134 -67 67 -34 274 -139 460 -234 185 -94 345 -175 355 -180 9 -6 55
-29 102 -52 216 -105 262 -136 297 -200 39 -72 77 -90 198 -90 111 -1 159 17
190 70 46 79 81 101 560 346 450 231 762 390 782 400 26 12 28 22 10 44 -8 9
-89 144 -182 301 -92 157 -186 314 -208 350 -70 113 -117 185 -117 180 0 -30
87 -203 238 -472 40 -71 72 -131 72 -134 0 -3 25 -44 55 -90 78 -119 87 -140
72 -152 -19 -16 -140 -72 -155 -72 -7 0 -11 -4 -8 -9 3 -5 -6 -12 -21 -16 -15
-3 -38 -14 -52 -24 -14 -10 -98 -54 -186 -98 -277 -138 -531 -271 -732 -385
-105 -59 -126 -76 -153 -118 l-32 -50 -117 0 c-131 0 -142 4 -190 73 -31 45
-79 74 -371 225 -74 38 -202 105 -285 149 -82 44 -184 98 -225 120 -41 22
-153 80 -247 128 -98 49 -173 93 -173 101 0 8 5 14 10 14 6 0 14 10 19 23 5
12 26 51 47 87 51 89 326 588 344 625 8 17 23 42 33 58 19 28 13 35 -13 14z"/>
<path d="M5280 3250 c-9 -6 -10 -10 -3 -10 6 0 15 5 18 10 8 12 4 12 -15 0z"/>
<path d="M2725 3220 c11 -5 27 -9 35 -9 13 -1 13 0 0 9 -8 5 -24 9 -35 9 l-20
0 20 -9z"/>
<path d="M5205 3208 c-29 -16 -35 -23 -22 -26 15 -3 87 33 87 44 0 9 -28 2
-65 -18z"/>
<path d="M4124 3135 c0 -49 1 -71 3 -48 2 23 2 64 0 90 -2 26 -3 8 -3 -42z"/>
<path d="M2987 3199 c7 -7 15 -10 18 -7 3 3 -2 9 -12 12 -14 6 -15 5 -6 -5z"/>
<path d="M2877 3189 c7 -7 15 -10 18 -7 3 3 -2 9 -12 12 -14 6 -15 5 -6 -5z"/>
<path d="M3016 3182 c-3 -5 8 -13 25 -19 35 -14 37 -10 5 11 -14 9 -27 12 -30
8z"/>
<path d="M2965 3170 c3 -5 8 -10 11 -10 2 0 4 5 4 10 0 6 -5 10 -11 10 -5 0
-7 -4 -4 -10z"/>
<path d="M5147 3159 c7 -7 15 -10 18 -7 3 3 -2 9 -12 12 -14 6 -15 5 -6 -5z"/>
<path d="M4985 3078 c-27 -17 -41 -27 -30 -23 49 18 58 18 50 4 -5 -8 -6 -12
-2 -9 3 3 5 9 6 13 0 5 8 15 18 22 37 27 6 22 -42 -7z"/>
<path d="M3244 3038 c10 -6 22 -6 26 -2 5 5 -3 10 -18 11 -22 1 -24 0 -8 -9z"/>
<path d="M4121 3024 c0 -11 3 -14 6 -6 3 7 2 16 -1 19 -3 4 -6 -2 -5 -13z"/>
<path d="M4871 3022 c-1 -7 -4 -11 -8 -9 -5 3 -17 1 -28 -4 l-20 -8 20 0 c16
-1 17 -3 5 -11 -9 -6 -20 -5 -29 3 -12 10 -13 9 -7 -2 7 -10 3 -12 -14 -6 -15
5 -20 4 -16 -4 4 -6 1 -9 -7 -5 -8 3 -21 -1 -28 -8 -8 -7 -20 -13 -26 -14 -43
-3 -47 -6 -23 -14 l25 -8 -27 -2 c-16 -1 -32 -4 -38 -5 -5 -1 -14 -3 -20 -4
-5 0 -10 -6 -10 -12 0 -6 5 -7 13 -2 6 4 23 9 37 11 34 4 80 25 80 36 0 4 7 6
15 3 8 -4 17 -2 20 4 4 5 11 7 16 4 5 -4 9 -2 9 4 0 6 6 8 13 5 8 -3 19 2 26
10 7 8 18 13 25 10 17 -6 41 22 26 31 -5 3 -10 -2 -11 -12 0 -16 -1 -16 -9 2
-5 11 -9 14 -9 7z"/>
<path d="M3523 2932 c-9 -5 -6 -12 10 -21 19 -13 21 -12 10 1 -7 8 -10 18 -6
21 9 9 1 8 -14 -1z"/>
<path d="M3566 2911 c-3 -5 0 -14 8 -20 10 -8 16 -8 25 3 10 12 8 14 -11 9
-18 -4 -20 -3 -8 6 9 7 10 11 3 11 -6 0 -14 -4 -17 -9z"/>
<path d="M3672 2870 c4 -23 27 -42 39 -34 7 4 9 3 6 -3 -4 -6 0 -13 8 -17 28
-10 26 14 -2 26 -15 7 -34 20 -41 28 -11 13 -12 13 -10 0z"/>
<path d="M4509 2853 c-8 -9 -29 -22 -46 -30 -18 -7 -33 -18 -33 -24 0 -5 -4
-8 -9 -5 -12 8 -136 -108 -173 -163 -31 -45 -31 -45 25 14 31 33 57 63 57 67
0 5 7 8 16 8 8 0 12 -4 9 -10 -8 -12 15 -13 34 -1 8 5 11 16 8 25 -11 28 2 45
31 40 14 -3 29 -7 34 -10 4 -3 8 -1 8 4 0 6 -7 12 -15 16 -8 3 -15 11 -15 18
0 10 2 10 9 -1 6 -10 13 -10 28 -2 11 5 23 8 26 4 4 -3 5 4 2 16 -4 24 5 27
24 9 11 -11 11 -9 2 9 -8 16 -8 23 2 26 7 4 8 6 1 6 -6 1 -18 -6 -25 -16z m-9
-28 c0 -2 -10 -9 -22 -15 -22 -11 -22 -10 -4 4 21 17 26 19 26 11z m-122 -110
c-3 -3 -9 2 -12 12 -6 14 -5 15 5 6 7 -7 10 -15 7 -18z"/>
<path d="M4583 2864 c4 -4 -1 -13 -11 -21 -15 -12 -14 -13 8 -2 33 16 33 16
13 23 -9 4 -14 4 -10 0z"/>
<path d="M3745 2800 c-4 -6 -3 -9 2 -8 4 2 8 -1 8 -7 0 -5 -4 -9 -8 -7 -5 1
-6 -2 -2 -8 5 -8 11 -7 21 1 16 13 19 -2 4 -17 -7 -7 -6 -11 4 -11 8 0 14 5
13 10 -1 5 4 12 12 15 8 2 11 0 7 -6 -3 -6 -2 -13 4 -17 5 -3 10 -2 10 4 0 6
7 8 16 4 13 -5 13 -7 2 -14 -10 -7 -9 -9 5 -9 9 0 17 -4 17 -9 0 -5 3 -18 6
-28 5 -15 2 -14 -14 4 -11 12 -22 20 -25 17 -6 -6 40 -53 52 -55 53 -6 74 -17
67 -35 -3 -8 -2 -12 4 -9 6 3 10 -2 10 -12 0 -14 2 -15 9 -5 6 10 13 7 30 -15
13 -15 19 -21 15 -13 -19 38 -68 89 -90 94 -14 4 -22 11 -18 17 4 8 9 7 15 -2
4 -7 11 -11 14 -8 3 4 -20 27 -52 53 -32 25 -65 52 -73 58 -8 7 -20 12 -27 10
-7 -2 -13 2 -13 8 0 13 -17 13 -25 0z m161 -102 c4 4 3 0 -4 -9 -6 -9 -9 -19
-5 -23 4 -4 1 -4 -8 -1 -8 3 -15 14 -15 25 0 13 4 16 12 10 6 -6 15 -6 20 -2z"/>
<path d="M4411 2756 c-9 -10 -9 -16 -1 -21 17 -10 37 12 24 25 -8 8 -15 6 -23
-4z m19 -6 c0 -5 -5 -10 -11 -10 -5 0 -7 5 -4 10 3 6 8 10 11 10 2 0 4 -4 4
-10z"/>
<path d="M1295 6130 c-27 -11 -54 -45 -72 -89 -14 -35 -14 -35 42 22 31 31 61
57 66 57 5 0 9 5 9 10 0 12 -17 12 -45 0z"/>
<path d="M1287 6047 c-59 -56 -67 -68 -67 -101 0 -51 25 -96 52 -96 21 0 20 2
-10 29 -17 17 -32 34 -32 38 1 10 60 89 60 79 0 -3 9 -2 21 4 16 9 59 86 59
106 0 13 -23 -3 -83 -59z"/>
<path d="M2820 6074 c0 -15 -5 -56 -12 -91 -14 -75 -40 -107 -96 -118 l-37 -7
47 -14 c63 -19 75 -44 91 -186 l13 -113 8 65 c21 181 36 217 102 236 37 10 38
11 14 18 -85 25 -89 30 -110 164 -12 74 -20 92 -20 46z"/>
<path d="M1171 6051 c-16 -22 -18 -31 -9 -34 10 -4 10 -6 0 -6 -7 -1 -10 -6
-7 -11 4 -6 1 -9 -7 -8 -7 2 -12 -4 -10 -14 2 -12 -2 -16 -13 -12 -8 3 -15 1
-15 -5 0 -5 -14 -32 -30 -58 -17 -26 -28 -53 -26 -60 3 -7 0 -12 -6 -10 -6 1
-13 -4 -15 -11 -9 -23 31 3 62 40 14 18 41 50 59 70 27 30 34 46 34 83 1 25 4
50 7 55 14 23 -5 7 -24 -19z m-31 -110 c0 -6 -4 -12 -8 -15 -5 -3 -9 1 -9 9 0
8 4 15 9 15 4 0 8 -4 8 -9z m-54 -59 c-17 -16 -18 -16 -5 5 7 12 15 20 18 17
3 -2 -3 -12 -13 -22z"/>
<path d="M5431 5926 c-1 -36 -8 -58 -26 -82 -28 -37 -31 -50 -11 -61 25 -15
36 -52 37 -130 l2 -78 8 74 c11 97 34 141 79 156 l35 12 -37 12 c-47 15 -57
29 -73 93 l-13 53 -1 -49z"/>
<path d="M1295 5947 c-25 -19 -10 -37 31 -37 38 0 47 22 15 40 -25 13 -24 13
-46 -3z"/>
<path d="M1136 5859 c-26 -29 -45 -54 -42 -56 2 -3 19 0 38 6 18 6 50 13 72
16 l38 6 -21 23 c-11 12 -21 27 -21 34 0 28 -22 18 -64 -29z"/>
<path d="M1337 5819 c-18 -10 -52 -68 -44 -75 2 -2 17 -2 33 2 26 5 29 10 29
45 1 21 1 39 0 39 0 0 -8 -5 -18 -11z"/>
<path d="M1378 5794 l-4 -33 30 17 c34 20 35 35 2 43 -21 6 -25 3 -28 -27z"/>
<path d="M1185 5795 c-105 -29 -146 -66 -144 -129 1 -23 3 -32 6 -21 8 37 36
95 46 95 12 0 0 -64 -13 -68 -6 -2 -10 -10 -10 -17 0 -7 13 -1 31 16 17 16 36
29 41 29 17 0 -27 -64 -53 -77 -38 -20 -2 -15 68 8 72 25 109 60 119 114 12
67 -1 74 -91 50z m37 -87 c-9 -9 -15 -9 -24 0 -10 10 -10 15 2 22 20 12 38 -6
22 -22z"/>
<path d="M1000 5690 c-1 -3 -3 -15 -4 -26 -1 -12 -15 -36 -29 -54 -30 -35 -94
-164 -122 -245 -23 -64 -33 -272 -15 -304 14 -27 5 -39 -18 -25 -10 7 -24 40
-33 80 -18 74 -35 70 -27 -6 2 -22 1 -40 -1 -40 -3 0 -18 12 -33 27 l-28 27
-1 -40 c-1 -21 -1 -69 1 -105 1 -40 -2 -69 -9 -73 -6 -4 -11 -16 -11 -26 0
-11 -9 -35 -20 -55 -26 -47 -25 -59 1 -17 23 35 51 39 57 9 2 -10 -4 -24 -14
-31 -16 -12 -16 -17 5 -77 21 -58 27 -66 60 -78 79 -28 87 -27 107 18 11 22
22 41 26 41 3 0 11 -13 16 -30 6 -16 26 -42 44 -59 l33 -29 -28 -7 c-19 -5
-34 -20 -48 -46 -23 -46 -34 -49 -44 -11 -9 39 -74 102 -105 102 -35 0 -87
-52 -100 -102 -20 -71 9 -162 48 -152 10 3 37 -2 60 -10 23 -9 60 -23 81 -31
34 -12 47 -12 93 0 64 16 75 11 23 -11 -51 -21 -102 -20 -155 5 -25 11 -58 21
-73 21 -24 0 -26 -2 -17 -19 5 -11 10 -22 10 -25 0 -14 -40 -4 -65 16 -48 37
-59 18 -62 -105 -3 -99 -1 -108 21 -133 l23 -28 -23 -33 c-32 -48 -41 -140
-17 -190 l18 -38 5 42 c6 48 18 47 44 -4 18 -37 28 -40 47 -17 53 64 172 59
227 -10 l19 -25 12 69 c6 38 11 80 11 95 0 23 -3 25 -27 19 -49 -10 -53 -13
-53 -34 0 -16 7 -20 30 -20 17 0 30 -4 30 -10 0 -13 -34 -30 -59 -30 -18 0
-21 6 -21 49 0 30 -5 51 -12 55 -9 3 -7 9 7 21 12 9 21 11 23 5 2 -5 14 -10
28 -10 21 0 23 3 18 33 l-6 32 30 -32 c22 -23 33 -28 40 -20 18 23 32 81 32
130 l0 49 -35 -26 c-82 -63 -211 -107 -269 -92 -44 11 -29 22 62 46 101 26
165 56 159 73 -2 7 -20 11 -45 9 l-40 -3 9 43 c11 45 22 58 54 58 11 0 34 9
52 19 30 19 31 22 20 51 -8 21 -16 29 -27 24 -58 -22 -120 1 -147 56 -17 34
-10 36 31 11 24 -15 48 -21 73 -19 l38 3 5 81 c6 90 19 114 59 114 30 -1 53
-16 69 -47 22 -41 14 -71 -33 -120 -25 -25 -45 -49 -45 -53 0 -11 45 -50 57
-50 6 0 16 15 22 33 16 52 33 223 26 270 -4 24 -2 61 4 81 10 37 10 37 -12 23
-12 -8 -38 -18 -57 -22 l-35 -7 21 23 c11 13 29 43 39 67 10 24 28 50 39 58
20 13 19 14 -11 51 -51 64 -109 103 -154 103 -88 0 -139 -46 -139 -125 0 -35
6 -52 25 -70 39 -40 105 -29 105 17 0 21 -4 22 -30 6 -25 -16 -42 0 -42 37 0
31 16 45 52 45 39 -1 70 -33 70 -73 0 -72 -73 -119 -149 -96 -32 9 -44 9 -55
0 -12 -10 -17 -8 -25 8 -9 16 -8 21 8 26 17 5 18 8 4 47 -8 24 -12 56 -9 74
10 50 65 125 106 143 32 14 36 19 27 38 -5 12 -23 26 -38 32 -30 10 -40 31
-14 31 10 0 6 8 -10 25 -41 40 -29 116 25 162 14 12 19 22 12 23 -20 0 20 69
67 114 24 24 43 52 46 70 4 27 -9 150 -15 136z m37 -767 c-16 -16 -17 -16 -17
3 0 26 11 37 24 24 7 -7 5 -16 -7 -27z m-38 -207 c13 -53 14 -76 3 -76 -8 0
-32 78 -32 105 0 32 18 13 29 -29z m-211 -198 c10 16 11 15 11 -1 2 -46 -39
-73 -67 -45 -18 18 -28 0 -13 -23 16 -27 8 -35 -13 -14 -22 22 -20 51 5 76 18
18 22 19 43 6 20 -13 24 -13 34 1z m15 -322 c10 -16 15 -32 10 -37 -5 -5 -33
-11 -64 -15 -51 -6 -56 -5 -67 17 -6 13 -19 34 -28 46 l-16 22 74 -2 c69 -2
74 -4 91 -31z m-54 -222 c28 -35 27 -79 -1 -98 -24 -17 -39 -13 -20 6 20 20
14 66 -9 79 -14 7 -24 8 -31 1 -7 -7 -3 -14 11 -21 27 -15 27 -33 0 -56 -19
-19 -21 -19 -55 0 -40 21 -44 49 -13 89 16 20 29 26 59 26 30 0 43 -6 59 -26z"/>
<path d="M4281 5513 c9 -16 16 -19 21 -10 5 8 8 7 8 -4 0 -9 13 -30 29 -46 15
-17 33 -39 39 -49 11 -18 11 -18 12 3 0 12 -13 34 -30 49 -24 23 -27 31 -17
44 10 13 10 13 -4 2 -14 -10 -18 -10 -23 4 -4 9 -9 14 -13 11 -3 -4 -13 -1
-21 6 -13 11 -14 9 -1 -10z"/>
<path d="M951 5429 c-24 -27 -42 -52 -40 -54 2 -2 23 2 47 8 41 11 42 12 42
54 0 24 -1 43 -2 43 -2 -1 -23 -23 -47 -51z"/>
<path d="M2496 5434 c-3 -8 -2 -22 2 -32 7 -17 8 -17 23 -1 15 15 15 18 -1 32
-16 13 -19 13 -24 1z"/>
<path d="M1540 5421 c8 -5 25 -12 37 -15 18 -6 22 -4 17 8 -4 10 -18 16 -38
16 -22 -1 -27 -3 -16 -9z"/>
<path d="M1485 5368 c4 -29 11 -62 15 -73 10 -26 56 -75 70 -75 13 0 6 51 -13
88 -8 17 -8 28 0 42 13 19 1 36 -44 59 -34 17 -35 15 -28 -41z"/>
<path d="M953 5356 c-53 -25 -83 -63 -83 -106 0 -22 35 -80 48 -80 7 0 12 32
12 80 1 43 9 68 26 74 13 5 15 1 11 -16 -2 -13 -8 -31 -12 -42 -7 -16 -5 -18
26 -11 19 4 34 8 35 9 0 0 -2 27 -5 58 l-6 58 -52 -24z"/>
<path d="M4440 5350 c6 -11 13 -20 16 -20 2 0 0 9 -6 20 -6 11 -13 20 -16 20
-2 0 0 -9 6 -20z"/>
<path d="M6267 5230 c-19 -123 -25 -143 -48 -161 l-23 -17 23 -20 c17 -13 27
-35 33 -73 12 -69 22 -402 14 -435 -4 -16 -18 -29 -36 -36 -34 -11 -35 -14
-17 -55 10 -24 16 -29 32 -22 11 4 32 8 46 8 40 1 57 64 20 74 -16 4 -20 18
-26 92 -10 120 -1 405 13 432 7 12 21 25 32 28 26 8 26 25 0 25 -28 0 -39 28
-48 122 -7 79 -8 81 -15 38z"/>
<path d="M3646 5213 c-6 -14 -5 -15 5 -6 7 7 10 15 7 18 -3 3 -9 -2 -12 -12z"/>
<path d="M920 5143 c1 -12 38 -58 43 -53 3 3 -6 18 -19 33 -13 15 -24 24 -24
20z"/>
<path d="M3668 5135 c5 -11 12 -27 15 -35 5 -13 6 -13 6 1 1 8 -6 24 -15 35
-15 19 -15 19 -6 -1z"/>
<path d="M5642 5088 c-6 -6 -12 -23 -12 -37 0 -17 -15 -37 -47 -65 -88 -77
-101 -93 -113 -136 -16 -58 9 -130 45 -130 14 0 25 -7 28 -17 4 -14 5 -13 6 3
2 36 61 49 61 14 0 -11 5 -20 10 -20 6 0 10 8 10 18 0 10 3 21 6 25 10 10 35
-5 44 -27 6 -15 9 -17 9 -5 1 24 24 30 56 13 15 -8 31 -14 36 -14 18 0 40 63
40 115 1 68 -21 106 -96 166 -32 25 -58 55 -61 69 -3 14 -7 29 -7 33 -1 4 -8
2 -15 -5z"/>
<path d="M3530 5070 c0 -5 7 -10 16 -10 8 0 12 5 9 10 -3 6 -10 10 -16 10 -5
0 -9 -4 -9 -10z"/>
<path d="M3530 5010 c0 -5 5 -10 10 -10 6 0 10 5 10 10 0 6 -4 10 -10 10 -5 0
-10 -4 -10 -10z"/>
<path d="M3575 5010 c3 -5 8 -10 11 -10 2 0 4 5 4 10 0 6 -5 10 -11 10 -5 0
-7 -4 -4 -10z"/>
<path d="M3606 4945 c4 -8 8 -15 10 -15 2 0 4 7 4 15 0 8 -4 15 -10 15 -5 0
-7 -7 -4 -15z"/>
<path d="M3215 4940 c4 -6 10 -8 15 -5 4 3 11 -1 13 -7 3 -8 6 -6 6 5 1 11 -6
17 -20 17 -11 0 -17 -5 -14 -10z"/>
<path d="M5224 4919 c-19 -22 -19 -22 4 -14 16 5 29 1 43 -11 18 -16 19 -16
19 0 0 10 -9 20 -20 23 -11 3 -17 9 -14 14 11 18 -13 8 -32 -12z"/>
<path d="M3273 4905 c0 -8 4 -12 9 -9 5 3 6 10 3 15 -9 13 -12 11 -12 -6z"/>
<path d="M5194 4893 c2 -12 -2 -27 -10 -34 -8 -6 -14 -16 -14 -21 0 -6 7 -5
15 2 17 14 20 2 4 -20 -8 -11 -12 -12 -16 -2 -2 6 -12 12 -20 12 -13 0 -13 -3
-3 -15 7 -8 17 -15 23 -15 13 0 87 77 87 90 0 13 -21 13 -40 0 -11 -7 -17 -4
-23 8 -6 13 -6 12 -3 -5z"/>
<path d="M5316 4873 c-3 -8 -2 -11 3 -8 5 3 12 1 16 -5 3 -5 1 -10 -5 -10 -18
0 -37 -24 -32 -39 4 -11 6 -11 13 0 6 10 9 11 9 2 0 -7 5 -13 10 -13 14 0 12
27 -2 33 -10 4 -10 6 -1 6 16 1 53 -30 53 -44 0 -5 -5 -3 -10 5 -9 13 -11 13
-20 0 -6 -10 -6 -16 3 -19 7 -2 15 -9 19 -15 5 -7 8 -6 9 4 0 8 7 2 14 -15 8
-16 15 -23 16 -15 1 8 5 -1 9 -20 l7 -35 2 33 c1 32 -34 122 -49 122 -4 0 -19
11 -33 24 -20 19 -27 21 -31 9z"/>
<path d="M5137 4851 c-29 -34 -34 -51 -16 -51 5 0 8 4 5 9 -4 5 6 18 20 29 15
10 25 25 22 32 -2 8 -13 1 -31 -19z"/>
<path d="M5091 4774 c0 -11 3 -14 6 -6 3 7 2 16 -1 19 -3 4 -6 -2 -5 -13z"/>
<path d="M1200 4683 c0 -79 -8 -177 -25 -298 l-6 -40 32 30 c49 46 72 108 72
190 -1 73 -30 172 -58 195 -13 11 -15 0 -15 -77z"/>
<path d="M626 4720 c-22 -68 -45 -360 -28 -360 5 0 7 33 4 75 -4 70 -2 80 28
140 33 64 33 65 18 117 -13 47 -15 50 -22 28z"/>
<path d="M1409 4687 c-57 -44 -47 -195 19 -269 29 -33 -8 -19 -39 14 -27 30
-29 31 -29 10 0 -12 -11 -50 -23 -84 -13 -35 -24 -87 -25 -117 0 -29 -4 -66
-7 -82 -6 -27 -4 -29 24 -29 16 0 33 -4 36 -10 4 -6 -9 -10 -33 -10 -38 0 -72
-22 -72 -48 0 -38 -78 -56 -111 -26 -16 14 -19 13 -42 -18 -40 -54 -42 -62
-12 -42 l28 18 -8 -24 c-4 -14 -32 -68 -61 -120 -35 -61 -54 -106 -54 -127 0
-18 3 -33 8 -32 4 0 19 26 34 57 54 113 172 227 338 327 90 54 149 111 176
170 31 66 31 87 0 79 -16 -4 -25 -1 -29 10 -7 19 6 28 27 20 9 -3 23 -1 31 6
42 35 49 -61 9 -136 -14 -27 -57 -83 -95 -125 l-68 -76 54 -7 c63 -7 162 -55
207 -100 51 -51 74 -118 87 -252 15 -140 6 -207 -36 -294 -27 -54 -108 -146
-150 -169 -22 -11 -22 -11 2 41 34 72 40 138 21 227 -9 41 -20 79 -24 83 -5 5
-27 2 -50 -8 -42 -16 -42 -16 -20 -33 31 -26 16 -42 -26 -29 -19 6 -42 8 -51
4 -24 -9 -16 -59 13 -71 31 -14 28 -25 -8 -25 -56 0 -89 66 -60 120 10 20 89
53 153 64 20 4 37 9 37 11 0 3 -12 29 -26 60 -30 62 -65 95 -100 95 -21 0 -24
-5 -24 -39 0 -51 -21 -69 -55 -47 -29 19 -33 60 -10 93 14 20 14 22 -5 28 -25
8 -25 16 1 49 27 34 82 35 148 2 87 -44 131 -128 150 -282 11 -92 4 -199 -18
-259 l-11 -30 30 35 c63 73 89 193 70 330 -14 104 -37 159 -93 219 -40 44 -41
46 -19 49 32 5 59 -22 94 -93 19 -38 27 -49 23 -30 -11 53 -58 137 -92 162
-28 22 -36 23 -70 14 -49 -14 -83 -14 -83 0 0 6 9 13 20 16 57 15 -22 40 -87
28 -44 -8 -116 -44 -158 -78 -29 -24 -30 -28 -30 -110 0 -79 2 -89 30 -129 37
-52 81 -70 143 -58 57 10 39 -13 -22 -29 -69 -17 -131 7 -166 64 -17 27 -25
33 -35 25 -9 -7 -16 -6 -24 4 -10 11 -9 16 2 23 9 5 16 33 19 83 l6 75 -40
-45 c-79 -91 -118 -212 -118 -370 0 -102 15 -138 75 -181 35 -25 43 -35 30
-37 -28 -6 -98 51 -123 99 -20 39 -22 55 -20 157 2 61 0 112 -3 112 -13 0 -56
-76 -75 -130 -12 -37 -19 -83 -19 -140 0 -75 4 -93 33 -154 17 -38 25 -63 17
-56 -8 7 -24 39 -36 71 -12 33 -24 58 -26 56 -2 -2 1 -34 6 -71 11 -78 40
-143 61 -137 47 11 100 13 100 2 0 -6 -7 -14 -15 -18 -13 -4 -12 -8 7 -21 13
-9 27 -22 31 -29 13 -21 26 -16 62 25 l35 37 1 -40 c1 -22 4 -51 8 -64 7 -24
7 -24 49 16 75 71 82 77 82 64 0 -7 -26 -40 -57 -73 l-58 -61 40 7 c22 5 45
12 52 17 7 7 14 6 18 -1 11 -17 100 -12 125 8 l22 18 -46 68 c-25 37 -46 72
-46 78 0 5 -14 -2 -31 -16 -39 -33 -79 -35 -79 -3 0 31 -11 44 -42 52 -19 5
-29 2 -36 -10 -10 -19 -52 -12 -52 8 1 31 15 37 62 23 45 -14 46 -14 65 12 43
59 41 60 -69 25 -44 -13 -50 -13 -90 5 -52 23 -96 69 -100 102 -5 40 28 37 53
-5 25 -42 46 -55 89 -55 36 0 80 38 80 70 0 19 4 21 30 15 l30 -7 -5 44 c-2
24 -7 69 -10 101 l-5 59 31 -23 c40 -28 86 -92 94 -130 l7 -31 21 20 c12 11
32 22 45 26 12 3 32 9 44 12 20 6 21 4 15 -40 l-7 -46 35 0 c25 0 35 -5 35
-15 0 -15 -18 -14 -67 0 -6 2 -19 -5 -28 -15 -16 -18 -15 -19 22 -29 40 -12
102 -66 89 -78 -4 -4 -38 -9 -76 -11 l-68 -4 9 -32 c5 -17 9 -51 9 -76 0 -49
13 -80 24 -61 4 6 16 11 26 11 14 0 18 5 13 16 -3 9 0 20 8 25 22 14 29 11 29
-15 0 -17 7 -26 25 -30 23 -6 24 -8 11 -22 -12 -11 -27 -13 -65 -8 -44 6 -50
4 -56 -15 -11 -34 -54 -61 -99 -61 -59 0 -176 -32 -176 -48 0 -7 7 -42 16 -78
l17 -65 24 23 c19 18 36 23 74 22 27 0 49 2 49 5 0 3 -11 27 -24 54 -13 26
-21 47 -17 47 19 0 51 -34 61 -67 l13 -36 33 39 c18 21 33 35 34 31 0 -15 -28
-62 -48 -81 l-21 -18 20 -28 c35 -46 9 -89 -33 -56 -14 10 -16 19 -9 44 10 32
0 42 -37 42 -15 -1 -15 -2 1 -11 24 -14 22 -64 -5 -89 -12 -11 -25 -20 -30
-20 -22 0 -5 -29 19 -32 38 -4 41 -27 4 -41 -22 -8 -31 -18 -31 -34 0 -31 53
-147 83 -183 l24 -28 -1 92 c-1 109 17 162 74 221 l39 40 -13 46 c-13 43 -20
87 -17 116 1 7 11 22 23 33 l23 21 -23 6 c-18 4 -20 8 -11 19 8 10 38 14 107
14 91 0 94 -1 79 -18 -23 -25 -21 -37 8 -50 34 -16 31 -26 -11 -41 -31 -11
-37 -11 -48 5 -13 17 -14 16 -25 -4 -15 -28 -29 -28 -40 -1 -7 21 -8 21 -30
-7 -18 -23 -22 -37 -18 -68 7 -53 18 -60 54 -39 26 14 35 15 57 5 15 -7 26
-20 26 -31 0 -27 -21 -37 -35 -18 -7 10 -18 17 -24 17 -21 0 -6 -24 22 -38 37
-18 143 -36 164 -27 16 6 16 8 -4 23 -26 21 -73 90 -73 109 0 10 5 11 19 3 11
-5 24 -10 29 -10 5 0 8 46 8 103 -1 95 1 107 29 163 28 57 29 60 9 56 -11 -2
-55 8 -97 22 -43 14 -91 26 -107 26 -30 0 -30 1 -15 24 9 13 33 35 54 49 37
25 38 28 34 69 -4 32 -1 47 10 56 13 11 19 8 38 -17 13 -17 26 -31 29 -31 4 0
10 22 13 50 7 62 28 130 39 130 4 0 8 -35 8 -77 1 -49 6 -87 15 -103 l14 -25
1 31 c0 37 35 89 43 64 21 -62 37 -114 37 -116 0 -1 -8 -5 -17 -7 -11 -3 -7
-5 10 -6 21 -1 30 5 37 24 5 14 15 25 21 25 6 0 9 -6 6 -12 -20 -50 -21 -48
16 -48 46 0 56 -17 20 -31 -20 -8 -43 -7 -83 2 -30 6 -66 11 -80 11 -31 -2
-145 -48 -133 -55 4 -2 33 -12 63 -20 55 -16 57 -16 105 8 51 26 85 32 85 15
0 -5 -6 -10 -13 -10 -24 0 -90 -63 -108 -104 -25 -55 -25 -96 0 -96 13 0 21
-10 25 -34 9 -47 -1 -82 -30 -101 -26 -17 -33 -55 -10 -55 8 0 18 5 21 10 3 6
13 10 21 10 10 0 14 -12 14 -44 0 -25 4 -47 8 -50 15 -9 53 30 77 79 l24 50 1
-38 c0 -43 -12 -70 -46 -107 l-23 -25 69 -1 c79 -1 146 -23 180 -59 30 -32 25
-31 -46 5 -36 18 -74 30 -99 30 -26 0 -35 -3 -27 -9 12 -7 12 -27 1 -120 -10
-88 -10 -114 -1 -120 9 -6 7 -15 -8 -34 -17 -21 -30 -27 -61 -27 -37 0 -40 -2
-33 -22 18 -60 48 -107 95 -147 l50 -43 -7 37 c-5 29 -4 37 7 33 7 -2 16 -15
19 -29 5 -21 7 -22 13 -6 4 10 7 30 7 43 0 13 5 24 10 24 6 0 10 -25 10 -54
l0 -55 55 25 c79 37 101 27 34 -15 l-54 -34 43 -14 c42 -15 43 -14 63 11 12
16 30 26 46 26 23 0 25 -3 20 -29 -3 -16 -20 -50 -37 -77 -37 -59 -38 -78 -4
-109 42 -39 51 -33 58 48 8 80 32 167 47 167 7 0 8 -29 2 -82 -14 -147 -12
-171 17 -179 31 -9 203 -11 224 -3 25 9 19 24 -9 24 -28 0 -79 23 -109 49 -40
35 -47 65 -37 155 10 84 25 130 58 175 l18 24 -29 -7 -28 -7 38 45 38 45 18
-29 c10 -17 22 -30 28 -30 21 0 8 -18 -36 -50 -47 -34 -83 -93 -84 -139 0 -23
0 -23 35 8 35 30 55 39 55 24 -1 -5 -15 -17 -33 -28 -43 -27 -56 -65 -33 -99
19 -30 97 -72 141 -77 29 -4 30 -3 52 74 12 43 25 102 28 130 l6 52 -21 -27
c-27 -35 -36 -35 -55 2 -22 43 -20 64 7 57 12 -4 28 -1 35 5 9 7 17 7 28 -2
13 -11 15 -8 15 13 0 50 18 36 28 -21 10 -63 0 -188 -18 -222 -22 -42 -1 -31
39 20 72 91 89 196 47 287 -36 77 -94 101 -171 69 -31 -13 -35 -13 -35 0 0 18
44 64 61 64 7 0 10 3 7 6 -3 3 -23 -2 -43 -10 -45 -19 -66 -20 -100 -4 -34 15
-32 28 5 28 24 0 35 7 48 30 22 38 61 40 128 4 l49 -26 -35 37 c-71 75 -192
109 -248 69 -12 -8 -22 -11 -22 -6 0 4 17 18 39 30 50 28 127 29 180 2 112
-57 199 -248 188 -411 -6 -96 -31 -154 -96 -222 -28 -30 -51 -56 -51 -59 0
-14 105 -44 223 -63 l37 -6 0 51 c0 56 -8 61 -57 30 -18 -10 -35 -16 -37 -11
-6 10 17 31 62 57 31 18 33 21 26 59 -3 22 -19 81 -35 131 -35 109 -38 185 -9
231 11 19 28 33 39 33 47 0 99 -120 85 -195 -3 -18 -16 -43 -28 -57 -17 -18
-22 -32 -18 -56 l4 -31 34 36 c28 29 38 34 61 29 31 -8 53 -31 53 -57 0 -27
-47 -77 -85 -89 -19 -6 -35 -18 -35 -26 0 -22 25 -66 53 -92 33 -31 45 -14 49
67 3 62 4 64 46 95 l44 31 19 -24 c23 -28 25 -74 3 -95 -25 -25 -41 -19 -48
19 -7 37 -17 43 -35 22 -13 -17 -10 -127 4 -127 16 1 97 39 132 63 l31 21 -24
23 c-18 16 -24 33 -24 63 0 75 34 104 133 116 66 8 133 -18 165 -64 28 -39 29
-56 3 -42 -31 16 -44 12 -90 -22 l-42 -33 56 -6 c84 -10 115 -47 79 -97 -19
-27 -44 -28 -51 -2 -7 26 -17 25 -99 -6 -38 -14 -88 -27 -111 -29 -23 -2 -54
-11 -70 -19 -28 -15 -28 -15 32 -16 68 -2 136 -19 142 -37 3 -9 -4 -10 -29 -2
-56 16 -201 30 -230 22 l-27 -8 44 -69 c88 -136 86 -208 -5 -285 l-33 -27 32
-27 c18 -15 36 -27 40 -27 4 0 12 17 18 38 10 36 10 36 12 7 2 -49 14 -58 62
-53 24 3 52 9 62 13 16 7 16 5 6 -17 -13 -29 -58 -58 -91 -58 -13 0 -35 -13
-51 -29 -36 -38 -119 -69 -208 -77 -97 -9 -86 -29 17 -29 60 0 93 6 135 23
l57 23 115 -20 c64 -12 128 -21 142 -21 14 0 25 -4 25 -9 0 -13 77 -61 97 -61
10 0 28 11 40 24 45 47 104 66 210 66 56 0 92 4 85 9 -15 9 -42 92 -42 129 0
21 2 22 15 12 8 -7 15 -19 15 -26 0 -11 9 -10 40 6 47 24 45 35 -7 43 -21 4
-50 9 -64 13 -23 5 -27 1 -43 -40 -20 -52 -115 -146 -148 -146 -16 0 -8 10 31
41 28 22 51 44 51 48 0 15 -88 54 -110 48 -12 -3 -19 -3 -16 0 3 4 -21 24 -54
44 -56 36 -67 48 -55 61 3 3 37 -10 75 -29 39 -18 72 -33 74 -33 3 0 65 47 93
69 7 7 19 4 35 -8 53 -41 138 -53 170 -24 10 9 18 11 18 6 0 -6 -7 -14 -17
-17 -14 -6 -14 -8 3 -21 10 -8 29 -15 42 -15 l24 0 -22 35 c-21 35 -22 39 -10
133 21 163 -1 219 -177 439 -68 86 -165 173 -192 173 -6 0 4 -22 23 -50 19
-27 38 -69 42 -92 11 -65 12 -160 2 -187 -11 -31 -8 -33 29 -21 25 9 36 7 72
-13 l42 -24 -46 -18 -47 -17 30 -18 c40 -24 45 -35 26 -54 -18 -18 -47 -21
-75 -6 -17 10 -19 7 -19 -28 0 -79 -49 -96 -71 -24 l-12 40 -33 -14 c-66 -28
-82 -9 -44 54 24 39 24 42 6 42 -8 0 -33 8 -55 19 l-42 18 42 7 c54 9 69 21
69 57 0 34 18 37 61 12 40 -24 49 -9 49 78 0 164 -94 266 -320 347 -279 100
-575 264 -798 444 -239 192 -408 377 -602 659 -127 185 -292 595 -343 856 -16
83 -26 113 -33 103 -10 -16 -10 -20 -13 -97 -1 -41 -4 -51 -15 -47 -9 4 -16
23 -19 52 -3 46 -3 46 -11 15 -5 -18 -17 -40 -29 -50 -20 -18 -20 -18 -13 41
5 47 3 62 -10 77 -15 17 -15 19 -1 25 8 3 25 0 37 -6 20 -11 21 -10 9 11 -10
20 -9 25 11 41 29 23 40 23 40 -2 0 -11 5 -20 12 -20 8 0 9 29 5 107 -4 58 -7
126 -7 151 0 44 -1 45 -19 28 -22 -20 -133 -56 -173 -56 -15 0 -39 11 -55 24
-27 23 -27 25 -15 70 11 43 36 73 101 123 12 10 13 12 2 13 -7 0 -24 11 -37
25 -25 27 -50 31 -75 12z m55 -43 c24 -9 19 -29 -10 -49 -21 -13 -31 -15 -50
-6 -13 6 -24 17 -24 26 0 20 16 19 24 -1 8 -20 26 -9 26 17 0 20 8 23 34 13z
m-54 -388 c5 -13 17 -29 26 -34 16 -9 15 -12 -9 -38 l-27 -29 -35 19 c-42 23
-43 30 -10 52 14 9 25 25 25 35 0 27 19 24 30 -5z m-210 -666 c0 -6 -13 -9
-29 -8 -16 1 -36 -4 -44 -10 -20 -17 -31 1 -17 28 8 15 17 19 31 15 13 -4 19
-2 19 9 0 13 4 12 20 -4 11 -11 20 -25 20 -30z m-31 -99 c9 -16 6 -19 -24 -24
-20 -3 -49 -15 -65 -27 l-30 -21 0 29 c0 28 29 64 60 74 20 7 47 -8 59 -31z
m-8 -101 c27 -15 24 -37 -10 -54 -23 -12 -32 -13 -45 -3 -16 12 -16 15 4 40
24 31 24 31 51 17z m925 -424 c57 -26 105 -80 153 -169 43 -82 46 -110 22
-197 -25 -88 -13 -82 26 15 30 75 70 112 94 88 10 -10 7 -14 -13 -22 -26 -10
-68 -60 -68 -81 0 -10 3 -10 15 0 36 30 145 -4 145 -46 0 -17 -44 -64 -60 -64
-15 0 -12 16 5 30 30 25 17 40 -35 40 -41 0 -55 -5 -84 -31 -19 -16 -38 -40
-42 -52 -6 -19 -9 -15 -21 25 -16 58 -55 84 -109 73 -44 -8 -43 7 1 31 34 18
37 18 65 2 41 -24 37 -9 -10 37 -40 39 -51 65 -27 65 24 0 59 -33 77 -72 l17
-39 7 54 c6 59 -4 103 -37 152 -56 83 -119 125 -187 125 l-41 0 7 -37 c13 -69
21 -83 52 -83 39 0 59 -40 33 -64 -29 -27 -76 -20 -105 15 -29 34 -32 62 -12
99 12 21 12 26 -3 36 -9 7 -28 10 -43 7 -16 -3 -28 -1 -28 5 0 16 33 50 65 67
42 21 82 19 141 -9z m194 -89 c0 -14 -28 11 -52 47 l-21 31 36 -34 c21 -19 37
-39 37 -44z m-510 33 c0 -13 -64 -29 -69 -17 -2 5 3 13 10 18 19 12 59 11 59
-1z m591 -466 c15 -18 17 -75 5 -116 -8 -26 -7 -26 59 -33 64 -7 65 -8 49 -26
-16 -18 -16 -20 4 -42 28 -30 28 -43 0 -51 -27 -6 -95 3 -122 17 -16 8 -18 7
-11 -9 4 -11 10 -47 13 -81 5 -66 -1 -74 -38 -51 -15 10 -22 9 -38 -5 -18 -16
-20 -16 -26 -2 -3 9 -6 43 -6 76 l0 59 -39 -20 c-56 -28 -119 -37 -126 -17 -9
23 20 83 49 102 l26 17 -45 37 -45 36 25 23 c30 26 74 28 115 7 27 -14 28 -14
39 15 13 38 55 80 79 80 11 0 26 -7 33 -16z m117 -42 c3 -18 -1 -20 -40 -15
-24 3 -44 7 -45 8 -2 1 6 11 17 23 24 26 63 17 68 -16z m-9 -311 c11 -20 5
-31 -16 -31 -7 0 -13 11 -13 25 0 29 15 33 29 6z m805 4 c3 -8 12 -15 20 -15
8 0 17 -4 21 -10 9 -14 -6 -61 -18 -53 -5 3 -16 -1 -22 -11 -11 -15 -15 -14
-36 9 -13 13 -30 25 -36 25 -26 0 -12 28 17 34 18 3 30 12 30 21 0 19 16 20
24 0z m154 -42 c-2 -10 -7 -18 -12 -18 -5 0 -10 8 -12 18 -1 9 4 17 13 17 8 0
13 -7 11 -17z m440 -345 c-7 -19 -38 -22 -38 -4 0 10 9 16 21 16 12 0 19 -5
17 -12z m-418 -167 l0 -28 47 15 46 15 34 -36 c38 -43 45 -90 14 -107 -26 -14
-38 -13 -23 2 13 13 15 49 6 86 -8 29 -46 29 -85 1 -36 -25 -39 -48 -4 -42 20
4 25 0 31 -23 4 -15 7 -44 8 -63 1 -42 12 -49 81 -51 46 -1 49 -2 31 -15 -11
-8 -27 -15 -35 -15 -13 0 -15 -11 -13 -64 3 -59 2 -66 -28 -100 -23 -26 -40
-36 -61 -36 -41 0 -52 34 -50 148 1 50 -1 92 -4 92 -4 0 -16 -11 -27 -25 -48
-62 -125 5 -88 76 15 28 30 23 30 -10 0 -35 27 -62 41 -40 10 16 12 79 3 103
-3 8 -12 12 -19 10 -23 -9 -27 14 -6 35 15 15 19 28 14 55 -6 36 -7 34 50 45
4 0 7 -12 7 -28z m600 -156 c0 -32 -38 -77 -63 -73 -11 2 -29 15 -40 30 -18
24 -19 32 -9 65 7 21 21 53 33 72 l21 34 29 -53 c16 -29 29 -63 29 -75z m-420
-44 c-26 -15 -80 -23 -80 -12 0 9 28 16 75 19 16 1 17 0 5 -7z m80 -226 c0 -9
-8 -14 -22 -12 -18 2 -24 -4 -26 -25 -3 -25 0 -28 27 -28 16 0 32 6 35 13 3 6
4 1 3 -13 -2 -22 -7 -25 -42 -25 -34 0 -41 4 -49 27 -7 20 -5 33 8 52 18 29
66 37 66 11z"/>
<path d="M3467 1393 c7 -48 18 -60 32 -35 7 14 7 27 -2 46 -19 40 -37 33 -30
-11z"/>
<path d="M3480 1231 c0 -95 11 -109 58 -79 29 18 32 24 32 73 0 51 -1 54 -30
60 -16 4 -32 11 -35 16 -16 26 -25 1 -25 -70z"/>
<path d="M2550 4685 c0 -9 5 -15 11 -13 6 2 11 8 11 13 0 5 -5 11 -11 13 -6 2
-11 -4 -11 -13z"/>
<path d="M5994 4645 c-12 -11 -40 -33 -63 -50 -23 -16 -44 -39 -47 -51 -3 -12
-1 -106 4 -210 6 -122 9 -158 10 -102 2 106 13 138 46 138 29 0 35 -19 37
-115 1 -38 4 -54 6 -35 7 79 25 140 43 150 29 15 50 -13 51 -68 1 -26 4 -36 6
-22 5 30 21 65 46 100 12 18 18 47 20 97 2 64 -1 74 -23 98 -14 15 -38 33 -53
41 -15 9 -36 23 -45 32 -16 16 -18 16 -38 -3z"/>
<path d="M1501 4585 c-38 -35 -80 -95 -66 -95 4 0 20 15 36 33 25 27 31 29 39
17 5 -8 10 -18 10 -22 0 -10 -55 -38 -75 -38 -27 0 -11 -25 18 -28 39 -5 66
15 88 61 22 50 23 67 6 92 -13 17 -16 16 -56 -20z"/>
<path d="M1026 4532 c-7 -20 1 -52 13 -52 18 0 43 28 39 46 -5 26 -44 31 -52
6z"/>
<path d="M1037 4293 c-13 -12 -8 -83 6 -83 11 1 53 49 45 53 -1 1 -12 10 -24
20 -11 9 -24 14 -27 10z"/>
<path d="M1281 4253 c0 -7 -23 -39 -51 -72 -27 -33 -50 -63 -50 -66 0 -4 17
-4 38 -1 20 3 40 5 44 6 9 0 30 107 25 128 -3 9 -5 12 -6 5z"/>
<path d="M6900 4155 c0 -8 2 -15 4 -15 2 0 6 7 10 15 3 8 1 15 -4 15 -6 0 -10
-7 -10 -15z"/>
<path d="M6922 4070 c0 -19 2 -27 5 -17 2 9 2 25 0 35 -3 9 -5 1 -5 -18z"/>
<path d="M1206 4081 c-39 -8 -44 -29 -10 -37 20 -5 31 -2 41 11 7 11 13 22 13
27 0 9 -1 9 -44 -1z"/>
<path d="M542 4020 c-8 -13 -12 -60 -12 -133 0 -103 5 -140 29 -202 17 -43 31
-92 31 -108 0 -10 4 -25 9 -35 5 -9 15 -37 22 -62 20 -68 72 -168 76 -148 3
10 -7 37 -20 60 -26 45 -57 164 -57 219 0 17 -9 47 -21 65 -11 19 -16 34 -10
34 5 0 12 -4 15 -9 3 -5 18 -12 33 -16 15 -3 31 -12 35 -18 4 -7 8 -54 8 -105
0 -138 29 -193 76 -141 10 11 42 35 71 52 29 17 53 34 53 37 0 3 -15 21 -33
41 -25 29 -36 35 -52 28 -11 -4 -30 -8 -43 -8 -22 -1 -22 0 -7 29 12 22 13 35
5 49 -5 11 -10 26 -10 35 0 21 41 32 54 15 6 -8 23 -14 39 -14 23 -1 26 3 21
20 -3 11 -14 32 -25 47 -24 34 -24 38 0 38 36 0 72 -41 78 -89 5 -38 3 -46
-17 -61 -21 -16 -22 -21 -11 -50 22 -63 15 -82 -45 -130 -30 -24 -60 -52 -65
-62 -9 -16 -5 -18 36 -18 25 0 48 0 52 -1 4 0 15 29 24 66 18 69 32 95 75 142
22 23 25 35 21 70 -6 56 -50 129 -90 149 -17 10 -47 16 -65 16 -58 -2 -88 -27
-143 -122 -7 -13 -13 -12 -45 5 -71 38 -79 60 -78 206 0 71 0 129 0 129 -1 0
-7 -9 -14 -20z"/>
<path d="M6911 3804 c0 -11 3 -14 6 -6 3 7 2 16 -1 19 -3 4 -6 -2 -5 -13z"/>
<path d="M6850 3740 c0 -5 5 -10 11 -10 5 0 7 5 4 10 -3 6 -8 10 -11 10 -2 0
-4 -4 -4 -10z"/>
<path d="M6855 3684 c-23 -30 -26 -42 -21 -75 5 -34 4 -39 -12 -39 -11 0 -24
10 -29 23 -9 20 -12 17 -40 -40 -28 -58 -27 -85 2 -47 21 29 78 -7 59 -37 -9
-16 -21 -10 -28 13 -4 18 -8 20 -17 11 -10 -10 -9 -17 6 -33 38 -42 67 -14 94
91 25 102 34 158 22 139 -5 -8 -13 -11 -17 -7 -4 3 -1 13 6 22 7 8 10 15 7 15
-2 0 -17 -16 -32 -36z m21 -39 c0 -19 -3 -22 -13 -13 -10 8 -10 14 -2 24 15
18 15 18 15 -11z"/>
<path d="M6720 3421 c0 -26 4 -29 46 -36 25 -3 48 -4 52 -1 11 12 -61 66 -87
66 -6 0 -11 -13 -11 -29z"/>
<path d="M6652 3366 c-13 -27 -21 -54 -18 -60 2 -6 12 7 22 29 17 39 17 39 25
15 5 -19 7 -20 7 -5 0 11 -3 31 -7 45 -7 23 -9 22 -29 -24z"/>
<path d="M6728 3365 c0 -11 0 -45 1 -76 2 -40 -1 -59 -13 -68 -12 -10 -14 -23
-10 -53 6 -36 5 -39 -13 -36 -11 1 -27 -3 -36 -11 -15 -12 -17 -11 -17 12 0
14 -5 29 -11 33 -8 4 -3 12 12 20 l24 14 -23 6 c-13 4 -21 12 -19 18 4 11 17
12 53 1 17 -5 22 -2 26 17 13 75 -32 77 -79 3 -28 -43 -77 -114 -121 -176 -13
-17 -12 -18 26 -2 23 8 48 13 57 10 25 -10 38 -49 26 -80 -16 -42 -38 -44 -77
-7 -18 19 -36 32 -38 29 -2 -2 -7 -21 -11 -41 -6 -32 -5 -38 10 -38 14 0 16 6
11 30 -3 19 -2 29 4 25 6 -3 10 -12 10 -19 0 -8 14 -19 31 -26 26 -11 28 -15
15 -22 -9 -5 -25 -7 -35 -3 -29 9 -34 -29 -7 -54 47 -44 85 -17 140 103 23 50
53 117 66 149 12 31 26 60 31 63 5 3 9 24 9 47 1 23 5 61 9 85 7 36 6 42 -8
42 -10 0 -22 5 -29 12 -9 9 -12 8 -14 -7z"/>
<path d="M727 3356 c-12 -30 -8 -53 22 -139 39 -110 74 -189 110 -243 24 -34
27 -44 14 -44 -24 0 -74 59 -112 131 -29 56 -32 59 -28 29 20 -126 38 -182 79
-241 9 -15 36 -61 58 -102 22 -42 64 -112 92 -156 29 -43 86 -132 127 -198 41
-65 81 -126 90 -136 14 -17 15 -16 25 15 8 25 20 36 46 44 l34 11 -29 16 c-17
8 -61 45 -98 81 -52 49 -68 71 -65 88 2 15 11 24 26 26 30 5 28 17 -7 32 -47
19 -64 71 -60 184 l4 96 -60 26 c-45 20 -56 28 -42 33 16 6 14 10 -14 36 -17
17 -43 55 -58 85 -24 51 -26 65 -26 190 l0 135 -33 -3 -33 -4 21 -23 c18 -19
19 -23 5 -35 -19 -16 -39 -1 -64 48 -14 28 -19 31 -24 18z m253 -555 c0 -5 9
-11 20 -14 20 -5 20 -6 -5 -31 -31 -31 -30 -31 -56 -5 l-22 22 24 18 c26 20
39 24 39 10z"/>
<path d="M6811 3271 c-11 -27 -21 -56 -21 -63 0 -8 -4 -18 -9 -23 -12 -14 -31
-106 -20 -99 19 11 47 82 62 154 8 41 14 76 13 78 -2 1 -13 -20 -25 -47z"/>
<path d="M1355 3200 c3 -5 8 -10 11 -10 2 0 4 5 4 10 0 6 -5 10 -11 10 -5 0
-7 -4 -4 -10z"/>
<path d="M1779 3157 c-15 -20 -97 -67 -144 -83 -13 -4 -15 -8 -7 -11 18 -7
161 63 168 81 10 27 -1 35 -17 13z"/>
<path d="M1860 3140 c8 -5 20 -10 25 -10 6 0 3 5 -5 10 -8 5 -19 10 -25 10 -5
0 -3 -5 5 -10z"/>
<path d="M6551 3041 c-12 -8 -12 -12 -2 -25 21 -25 53 -21 49 6 -3 25 -25 33
-47 19z"/>
<path d="M967 3011 c-35 -13 68 -91 120 -91 26 0 -3 27 -37 33 -20 5 -31 14
-36 31 -7 28 -21 36 -47 27z"/>
<path d="M6428 2982 c-9 -15 -37 -49 -62 -77 -26 -27 -72 -87 -103 -132 -45
-66 -57 -92 -61 -132 -4 -47 -2 -53 28 -81 48 -45 136 -64 182 -39 32 17 48
-6 21 -32 -22 -23 -59 -27 -137 -15 -43 7 -48 6 -42 -9 3 -9 6 -21 6 -26 0 -4
15 -16 33 -26 25 -13 28 -18 14 -21 -10 -2 -29 3 -42 12 -33 22 -34 21 -51
-20 -19 -46 -8 -60 32 -40 37 20 49 8 37 -40 -11 -51 -54 -78 -79 -52 -11 10
-19 39 -22 72 -4 49 -2 57 22 81 23 23 25 29 14 48 -7 12 -13 29 -13 37 -1 16
-4 16 -48 6 -20 -5 -29 -2 -33 9 -4 8 -16 15 -28 15 -19 0 -18 -3 12 -31 28
-27 32 -36 32 -82 l-1 -52 -20 41 c-11 23 -31 46 -44 52 -30 14 -30 12 -5 -32
28 -45 11 -53 -35 -16 -44 35 -55 37 -55 11 0 -30 47 -79 83 -86 46 -10 104
-52 116 -85 24 -70 -53 -178 -144 -202 -39 -11 -71 -38 -44 -38 6 0 8 -4 5 -9
-4 -5 0 -12 6 -14 20 -8 -13 -28 -39 -24 -17 3 -25 -4 -39 -37 -44 -101 -91
-145 -171 -161 -50 -10 -46 9 5 27 45 16 112 70 112 89 0 5 -37 -16 -82 -46
-86 -58 -139 -78 -191 -73 -30 3 -28 5 23 21 38 12 68 30 96 59 l41 43 -71 68
-70 69 -49 -5 c-27 -2 -60 -13 -73 -23 -22 -16 -26 -28 -28 -84 -1 -36 -7 -74
-13 -84 -8 -15 -12 -6 -18 50 -9 84 -30 141 -56 149 -10 4 -39 3 -63 0 -51 -8
-61 3 -70 74 -2 24 -7 45 -9 47 -2 3 -23 -3 -46 -12 -32 -13 -39 -19 -31 -30
6 -7 25 -16 42 -19 23 -5 27 -9 17 -16 -23 -15 -65 -10 -82 9 -10 10 -14 22
-10 27 5 4 -1 5 -12 1 -11 -4 -37 -13 -58 -19 -35 -11 -37 -14 -31 -42 3 -16
10 -34 15 -39 13 -14 11 -26 -5 -26 -17 0 -26 -22 -26 -63 0 -49 11 -79 24
-69 6 5 39 19 73 31 l61 23 -16 29 c-16 26 -16 30 0 56 31 53 109 34 122 -29
l6 -31 24 22 c20 19 28 21 46 11 26 -14 50 -67 50 -113 0 -29 -5 -36 -47 -57
-27 -13 -68 -26 -92 -29 -43 -6 -44 -7 -57 -58 -28 -111 -86 -182 -166 -204
-54 -14 -111 2 -149 42 l-26 28 -10 -22 c-10 -22 -11 -21 -47 17 -20 21 -38
37 -39 35 -2 -2 -11 -17 -21 -32 -14 -23 -20 -26 -32 -16 -8 6 -14 21 -14 33
0 15 -9 25 -30 33 -18 7 -32 21 -36 37 -6 25 -1 35 41 92 15 20 -9 165 -30
180 -31 23 -114 34 -256 34 -103 0 -141 -3 -143 -12 -3 -7 -7 -24 -10 -38 -3
-14 -26 -52 -51 -85 -41 -53 -46 -65 -42 -100 3 -22 8 -49 12 -60 7 -19 7 -19
-10 -3 -11 10 -20 37 -23 67 -4 43 0 57 26 99 33 54 56 122 44 134 -4 3 -63
12 -132 18 -69 6 -161 18 -205 26 -44 7 -83 14 -86 14 -4 0 43 -49 104 -110
61 -60 113 -107 116 -105 2 3 -1 11 -7 17 -7 7 -12 29 -12 50 0 46 24 52 43
11 l12 -27 5 30 6 29 14 -25 c7 -14 14 -52 14 -85 1 -54 -1 -60 -20 -63 -20
-3 -19 -5 10 -36 37 -40 129 -96 157 -96 19 0 18 3 -11 36 -17 20 -29 38 -26
41 3 3 30 -7 59 -22 l54 -27 79 46 c51 30 71 46 57 46 -12 0 -25 -4 -28 -10
-10 -16 -35 -12 -35 5 0 23 132 149 179 169 39 18 91 16 91 -3 0 -5 -22 -17
-49 -26 -27 -9 -69 -30 -92 -47 l-43 -31 35 -11 c30 -10 34 -16 37 -49 l3 -38
-91 -41 c-91 -42 -92 -42 -71 -59 34 -28 127 -59 176 -59 35 0 48 5 63 25 23
28 32 32 32 10 0 -45 -99 -78 -172 -56 -22 7 -47 15 -57 17 -9 3 2 -5 24 -18
36 -20 52 -22 147 -21 58 1 143 9 188 19 45 9 84 13 87 10 14 -13 -14 -62 -42
-75 -82 -40 -311 -18 -483 46 -107 39 -106 40 -162 -45 -41 -61 -56 -141 -35
-181 23 -46 49 -56 88 -34 24 15 32 26 32 48 0 36 -29 46 -50 18 -33 -44 -52
44 -21 93 20 29 61 41 81 24 22 -18 18 -30 -8 -30 -37 0 -39 -10 -7 -40 24
-23 30 -36 30 -70 0 -35 -6 -47 -34 -73 -44 -41 -89 -75 -112 -84 -14 -5 -16
-2 -11 16 6 24 12 24 -84 5 -28 -5 -30 -8 -24 -37 12 -55 25 -62 96 -48 79 16
161 57 229 115 29 25 68 52 86 61 29 14 34 21 34 50 0 19 -2 35 -5 35 -2 0
-15 -11 -29 -25 -48 -48 -109 -20 -86 39 26 70 132 53 149 -24 l8 -35 17 38
c15 34 20 37 54 36 37 -1 37 -1 10 -12 -30 -12 -35 -26 -16 -45 10 -10 10 -15
-2 -22 -27 -17 4 -9 34 9 39 22 55 49 38 60 -10 6 -10 10 2 20 12 10 22 8 53
-13 21 -14 48 -26 61 -26 33 0 101 37 145 78 20 20 37 31 37 25 0 -20 -42 -63
-88 -90 -26 -14 -53 -33 -60 -42 -10 -13 -16 -13 -32 -3 -11 6 -28 17 -38 23
-15 10 -27 5 -67 -25 -26 -21 -69 -48 -95 -61 -25 -13 -52 -31 -59 -39 -20
-24 -39 -20 -34 8 5 24 4 24 -37 14 -40 -10 -41 -12 -38 -47 3 -35 4 -36 43
-34 59 4 275 79 358 125 88 48 120 78 159 145 16 29 34 55 39 58 15 10 61 -28
74 -60 l13 -30 7 28 c6 24 12 28 31 23 20 -5 29 3 64 54 22 33 43 60 47 60 13
0 -11 -98 -33 -137 -31 -54 -17 -55 56 -7 30 20 79 43 108 51 29 8 82 30 117
49 55 30 66 33 71 20 10 -26 22 -19 60 35 21 29 67 71 108 99 88 60 134 98
272 224 122 111 165 157 235 254 27 37 82 101 123 142 96 96 236 318 259 412
9 35 34 102 56 151 23 48 41 90 41 93 0 3 -22 -14 -50 -38 -46 -39 -49 -45
-44 -78 6 -43 -37 -134 -78 -164 -36 -26 -45 -15 -18 22 12 17 25 51 28 77 5
45 4 47 -16 36 -32 -17 -77 -13 -106 10 -22 17 -26 28 -26 69 0 27 4 52 10 55
5 3 9 -9 8 -29 -2 -51 17 -69 65 -63 30 4 37 2 33 -9 -3 -8 -1 -14 4 -14 13 0
13 57 0 65 -5 3 -10 15 -10 26 0 13 4 18 12 13 7 -4 8 -3 4 4 -4 7 -21 16 -39
20 -20 6 -31 14 -28 23 11 42 20 84 17 86 -1 1 -9 -10 -18 -25z m40 -115 c4
-20 -25 -34 -40 -19 -15 15 -1 44 19 40 10 -2 19 -11 21 -21z m-68 -122 c26
-14 30 -21 30 -60 0 -34 -5 -47 -21 -59 l-22 -15 27 -7 c17 -4 26 -12 24 -22
-4 -23 -66 -62 -97 -61 -25 0 -25 1 6 12 18 7 40 20 50 30 17 16 15 17 -28 11
-42 -6 -48 -4 -67 21 -36 46 -24 111 28 152 20 16 35 16 70 -2z m-209 -311
c11 -14 10 -15 -11 -12 -13 1 -25 9 -28 16 -5 17 23 15 39 -4z m-551 -477 c0
-17 -20 -37 -37 -37 -13 0 -18 32 -6 43 11 12 43 7 43 -6z m10 -56 c0 -5 -17
-15 -37 -21 -76 -23 -94 -33 -108 -61 -14 -26 -13 -28 6 -31 36 -5 61 -64 56
-131 -4 -68 -30 -110 -72 -115 -31 -4 -40 6 -56 63 -10 35 -12 37 -21 20 -27
-51 -130 -136 -146 -120 -4 4 3 14 15 23 11 10 37 29 56 44 23 18 43 48 61 95
63 157 102 208 164 218 21 4 46 10 57 15 26 11 25 11 25 1z m-1250 -46 c37
-19 38 -42 3 -56 -16 -6 -40 -17 -55 -24 -43 -21 -62 14 -36 70 13 29 44 33
88 10z m200 -138 c0 -20 -9 -25 -31 -20 -33 9 -21 25 24 32 4 0 7 -5 7 -12z
m1140 -1 c0 -18 -47 -52 -82 -61 -29 -7 -61 17 -56 44 2 11 16 17 47 18 24 2
47 5 49 8 11 11 42 4 42 -9z m-356 -22 c21 -20 11 -37 -16 -28 -18 5 -20 3
-15 -14 8 -34 -17 -47 -53 -26 -16 10 -30 21 -30 25 0 3 12 18 26 33 30 29 65
34 88 10z m-796 -56 c7 -7 12 -18 12 -25 0 -10 -6 -10 -25 3 -29 19 -27 20
-49 -24 -18 -35 -36 -35 -36 1 0 13 11 29 28 39 33 20 54 22 70 6z"/>
<path d="M6326 2714 c-19 -18 -21 -55 -4 -72 7 -7 24 -12 38 -12 14 0 31 5 38
12 7 7 12 24 12 38 0 14 -5 31 -12 38 -17 17 -54 15 -72 -4z m44 -33 c-1 -17
-17 -29 -29 -21 -19 11 -6 41 14 34 8 -3 15 -9 15 -13z"/>
<path d="M5490 1761 c0 -19 23 -71 31 -71 12 0 11 24 -3 55 -11 24 -28 34 -28
16z"/>
<path d="M1131 2949 c-15 -43 -14 -49 7 -49 15 0 19 8 20 40 2 48 -12 52 -27
9z"/>
<path d="M6510 2867 c0 -12 32 -107 36 -107 13 0 1 72 -16 91 -10 13 -19 20
-20 16z"/>
<path d="M1074 2815 c-3 -14 -4 -61 -2 -105 3 -70 6 -83 29 -106 19 -19 34
-25 58 -22 l33 3 -21 26 c-32 41 -61 125 -61 179 0 38 -4 50 -15 50 -8 0 -17
-11 -21 -25z"/>
<path d="M1130 2792 c0 -38 57 -173 79 -186 16 -11 13 11 -14 99 -41 129 -65
161 -65 87z"/>
<path d="M6085 2669 c-114 -102 -278 -229 -380 -295 -38 -25 -150 -84 -247
-132 -176 -87 -177 -87 -183 -125 -9 -50 8 -73 38 -52 33 23 90 19 115 -8 12
-13 22 -31 22 -41 0 -13 5 -16 18 -11 42 18 119 36 144 32 23 -3 29 2 41 35
17 42 55 63 96 53 22 -6 23 -4 11 10 -7 9 -39 23 -72 32 -32 9 -58 20 -58 25
0 20 31 67 64 96 37 32 88 48 131 40 21 -4 25 -1 25 17 0 12 9 45 21 72 21 52
41 68 134 111 44 20 28 24 -21 5 -32 -12 -5 16 36 37 21 11 46 30 56 44 11 13
43 52 72 85 30 34 50 61 45 61 -4 -1 -53 -41 -108 -91z m-241 -273 c-7 -19
-34 -29 -34 -12 0 16 10 26 26 26 8 0 11 -6 8 -14z m-253 -226 c42 -23 5 -110
-48 -110 -27 0 -63 33 -63 58 0 10 7 28 16 40 17 24 61 30 95 12z"/>
<path d="M5546 2131 c-4 -5 -2 -12 3 -15 5 -4 12 -2 15 3 4 5 2 12 -3 15 -5 4
-12 2 -15 -3z"/>
<path d="M1279 2631 c-23 -19 -23 -21 -7 -37 16 -16 18 -16 43 0 28 18 30 49
4 54 -9 1 -27 -6 -40 -17z"/>
<path d="M6156 2632 c-4 -12 -19 -36 -33 -52 -32 -39 -18 -60 38 -58 40 1 46
7 30 24 -6 5 -14 32 -19 59 -7 41 -10 46 -16 27z"/>
<path d="M1150 2540 c0 -5 -6 -10 -14 -10 -24 0 -30 -21 -11 -38 10 -10 15
-12 11 -5 -3 6 -3 14 2 17 5 3 17 -9 27 -27 25 -44 114 -136 148 -153 34 -18
34 -15 -2 43 -16 27 -35 68 -42 93 -17 61 -44 90 -86 90 -18 0 -33 -4 -33 -10z
m88 -31 c3 -17 -22 -49 -39 -49 -10 0 -12 53 -2 64 12 11 38 2 41 -15z"/>
<path d="M1496 2513 c-49 -74 -70 -180 -47 -236 6 -18 8 -18 21 -2 16 19 70
275 58 275 -4 0 -19 -17 -32 -37z"/>
<path d="M1535 2433 c-11 -65 -20 -122 -20 -128 0 -5 22 -14 48 -19 69 -12
113 11 222 117 l90 88 -67 -6 c-83 -8 -165 8 -213 41 -20 13 -37 24 -39 24 -1
0 -11 -53 -21 -117z m145 -28 c10 -13 9 -19 -5 -36 l-19 -20 -20 21 c-21 21
-21 21 -2 36 25 18 31 18 46 -1z"/>
<path d="M1925 2481 c-55 -25 -157 -136 -194 -213 -49 -99 -64 -218 -40 -314
13 -50 19 -52 59 -24 24 17 29 18 40 5 7 -8 23 -15 36 -15 12 0 26 -5 29 -11
14 -22 -72 -86 -101 -75 -24 9 -15 -8 18 -34 39 -30 128 -38 206 -17 48 13 53
13 46 -2 -12 -29 -21 -102 -13 -107 5 -3 25 -2 45 2 l37 7 -7 105 c-4 59 -9
108 -11 110 -2 2 -20 -8 -42 -22 -21 -13 -50 -28 -66 -32 -15 -3 -31 -12 -35
-19 -5 -10 -15 -6 -42 16 -33 27 -34 29 -10 26 20 -2 26 4 31 28 4 17 7 23 8
15 1 -8 5 -21 10 -29 12 -18 70 1 101 34 l23 25 -36 15 c-27 11 -43 12 -63 5
-15 -6 -35 -8 -43 -5 -13 6 -12 10 8 26 13 10 32 19 43 19 18 0 17 3 -10 34
-25 29 -46 74 -77 162 -2 6 -16 15 -32 19 -60 15 -66 39 -27 112 37 70 41 70
36 2 -3 -37 0 -65 7 -72 8 -8 11 1 11 34 0 57 25 142 47 160 15 12 16 12 8 -6
-4 -11 -10 -61 -13 -111 -4 -91 -4 -91 21 -96 21 -4 26 0 31 25 3 16 6 66 6
111 0 58 5 88 16 104 14 20 14 22 -3 21 -10 0 -36 -8 -58 -18z"/>
<path d="M5912 2393 c-7 -3 -19 -18 -28 -35 -12 -23 -13 -33 -3 -44 18 -22 24
-17 36 34 12 53 12 51 -5 45z"/>
<path d="M5935 2339 c-21 -68 -10 -106 29 -106 36 0 56 -20 56 -55 0 -38 -25
-47 -49 -17 -26 33 -36 18 -25 -39 l9 -47 50 -3 c64 -3 120 28 148 81 21 40
17 84 -8 93 -19 8 -60 -26 -60 -50 0 -35 -23 -27 -54 19 -17 25 -31 49 -31 53
0 4 14 16 32 26 l32 19 -25 9 c-13 5 -38 23 -56 40 l-31 30 -17 -53z"/>
<path d="M1262 2288 c-7 -7 -12 -26 -12 -44 0 -35 63 -121 137 -188 l42 -38 7
29 c4 15 15 38 26 49 19 21 19 22 -4 57 -21 33 -27 36 -73 37 -27 0 -57 5 -65
10 -11 7 0 10 38 10 28 0 52 4 52 9 0 5 -18 25 -40 45 -42 37 -85 47 -108 24z"/>
<path d="M1655 2259 c-66 -37 -83 -60 -91 -122 -7 -48 -8 -50 -16 -25 -6 16
-5 47 0 78 9 49 8 52 -14 62 -48 22 -71 -28 -34 -75 22 -27 26 -42 10 -32 -18
11 -11 -7 16 -42 35 -46 27 -60 -13 -23 -31 29 -33 29 -43 11 -19 -37 -12 -75
23 -108 32 -31 91 -65 136 -78 22 -7 23 -6 15 21 -5 16 -9 65 -9 109 1 68 6
93 36 168 20 48 36 87 35 86 -1 -1 -23 -14 -51 -30z"/>
<path d="M6080 2286 c0 -2 7 -7 16 -10 8 -3 12 -2 9 4 -6 10 -25 14 -25 6z"/>
<path d="M6230 2275 c0 -9 6 -12 15 -9 8 4 15 7 15 9 0 2 -7 5 -15 9 -9 3 -15
0 -15 -9z"/>
<path d="M5761 2245 l-32 -37 45 -48 c61 -66 60 -78 -6 -73 -60 4 -97 -11
-109 -44 -6 -18 1 -31 39 -72 73 -77 128 -80 185 -8 28 33 31 45 34 120 4 87
-13 177 -34 185 -10 3 -13 -22 -13 -101 0 -153 -14 -164 -20 -17 l-5 125 -26
3 c-20 2 -34 -6 -58 -33z m-2 -266 c-14 -26 -29 -24 -29 4 0 30 10 40 26 26
10 -8 11 -16 3 -30z"/>
<path d="M2992 2178 c-7 -7 -12 -15 -12 -19 0 -8 59 -69 66 -69 3 0 4 16 2 36
-3 43 -36 72 -56 52z"/>
<path d="M4965 2049 c-16 -6 -97 -27 -180 -48 l-150 -38 60 -12 c154 -32 257
-119 247 -208 -5 -48 -15 -53 -48 -22 -19 18 -25 19 -45 9 -22 -12 -22 -13 10
-26 45 -19 39 -44 -17 -71 -2 0 4 -15 12 -31 22 -42 87 -66 166 -60 100 7 140
57 112 138 -11 30 3 62 40 88 20 14 24 37 8 47 -5 3 -44 -8 -87 -25 -43 -16
-81 -30 -85 -30 -4 0 -14 13 -23 30 -17 34 -20 116 -4 157 14 38 28 113 20
112 -3 0 -19 -5 -36 -10z m69 -354 c6 -28 11 -35 30 -35 28 0 51 -24 42 -45
-3 -8 -15 -15 -26 -15 -11 0 -29 -6 -40 -12 -47 -29 -75 36 -46 106 19 45 32
46 40 1z"/>
<path d="M3653 2024 c16 -9 32 -13 35 -9 9 9 -19 25 -43 24 -16 0 -15 -2 8
-15z"/>
<path d="M5950 1988 c0 -19 2 -20 10 -8 13 19 13 30 0 30 -5 0 -10 -10 -10
-22z"/>
<path d="M5187 1977 c-3 -8 5 -39 18 -71 13 -31 26 -67 29 -80 l6 -24 55 21
c49 18 55 23 55 48 0 33 -9 35 -51 13 -17 -8 -33 -14 -35 -11 -3 2 -10 23 -17
47 -13 47 -50 82 -60 57z"/>
<path d="M3392 1954 c-31 -22 -27 -74 7 -91 20 -10 31 -8 60 7 20 10 45 28 56
40 l20 22 -24 19 c-29 23 -88 25 -119 3z"/>
<path d="M3120 1935 c-9 -10 -10 -19 -3 -26 14 -14 45 0 41 19 -4 22 -23 25
-38 7z"/>
<path d="M2111 1810 c1 -60 6 -113 11 -116 5 -3 29 1 52 10 l43 17 -1 62 c0
34 2 74 6 88 7 24 5 25 -21 21 -16 -2 -43 4 -60 13 l-32 16 2 -111z"/>
<path d="M4683 1897 c3 -12 9 -48 12 -80 8 -65 20 -79 41 -48 18 25 40 27 52
4 9 -16 12 -16 36 0 14 10 26 23 26 30 0 36 -67 86 -143 108 -26 7 -29 6 -24
-14z"/>
<path d="M1567 1863 c-26 -25 19 -72 217 -227 176 -137 282 -188 317 -153 13
12 14 25 5 76 l-10 61 -53 0 c-29 0 -53 -2 -53 -5 0 -3 9 -14 21 -26 16 -16
18 -23 8 -35 -6 -8 -21 -14 -33 -14 -42 0 -61 45 -30 70 13 12 6 18 -53 46
-108 50 -144 89 -42 45 42 -18 73 -25 112 -22 13 1 17 8 15 29 l-2 29 -72 -5
c-94 -6 -129 7 -196 73 -56 55 -72 64 -83 45 -3 -5 10 -16 30 -24 19 -8 35
-20 35 -25 0 -28 -80 3 -106 40 -11 16 -24 26 -27 22z"/>
<path d="M3396 1759 c-15 -12 -25 -23 -22 -26 5 -6 63 24 71 37 11 18 -22 11
-49 -11z"/>
<path d="M3066 1734 c-12 -31 -6 -44 19 -44 30 0 31 5 6 36 -16 20 -20 21 -25
8z"/>
<path d="M2701 1706 c-17 -20 -41 -137 -41 -199 0 -69 19 -119 54 -143 35 -22
42 -13 28 35 -16 52 -15 126 2 160 16 30 90 101 106 101 22 0 8 18 -17 23 -16
2 -49 11 -75 20 -37 11 -50 12 -57 3z"/>
<path d="M2189 1666 c-25 -17 -54 -35 -63 -41 -15 -9 -15 -12 0 -40 9 -16 23
-42 31 -57 8 -16 23 -28 33 -28 45 0 127 24 147 43 25 22 37 19 27 -7 -8 -21
-86 -61 -148 -77 -52 -13 -58 -24 -19 -34 15 -3 72 -32 128 -63 177 -99 194
-106 275 -110 68 -4 89 -12 90 -34 0 -5 -13 -8 -30 -8 -26 0 -28 -2 -21 -22
13 -36 91 -45 128 -16 9 7 7 19 -7 51 -10 22 -17 44 -14 48 2 4 23 -3 46 -14
49 -25 171 -38 151 -16 -18 18 -16 39 2 39 9 0 15 -10 15 -26 0 -23 3 -25 25
-20 31 8 32 -7 3 -27 -34 -22 -14 -32 60 -31 86 1 135 24 130 61 -3 22 -8 26
-48 29 -25 2 -56 12 -70 23 -46 33 -51 55 -48 207 l3 142 -50 5 c-36 4 -60 0
-85 -12 -46 -24 -92 -97 -98 -159 -4 -44 -1 -51 23 -70 32 -25 67 -28 84 -8
18 22 2 46 -30 46 -32 0 -34 3 -19 31 14 26 42 24 68 -4 45 -48 13 -107 -58
-107 -47 0 -52 -13 -11 -30 23 -9 38 -9 66 0 46 15 53 8 19 -19 -67 -53 -223
1 -271 94 -12 23 -15 51 -10 130 3 55 10 113 16 129 10 25 10 28 -6 21 -108
-45 -121 -48 -208 -49 -73 -1 -99 3 -137 21 -25 12 -49 27 -53 33 -9 14 -14
12 -66 -24z m16 -97 c4 -6 19 -7 36 -4 32 7 34 4 19 -26 -14 -26 -45 -24 -64
3 -9 12 -16 26 -16 30 0 12 18 10 25 -3z m374 -15 c31 -6 44 -24 17 -24 -8 0
-16 -6 -19 -12 -3 -9 -11 -6 -26 9 -33 34 -29 38 28 27z m-170 -74 c-6 -27 -6
-48 2 -61 6 -12 8 -24 4 -27 -10 -10 -100 41 -100 58 0 14 71 69 91 70 9 0 9
-11 3 -40z m110 26 c34 -18 53 -56 37 -76 -6 -8 -26 -20 -43 -27 -40 -14 -44
-1 -11 34 l21 23 -27 21 c-14 11 -24 25 -21 30 8 12 11 12 44 -5z m116 -174
c42 -38 33 -55 -24 -50 -59 6 -101 30 -101 59 l0 20 26 -20 c15 -12 35 -21 45
-21 17 0 17 3 4 41 -21 60 -18 81 6 34 11 -22 31 -50 44 -63z"/>
<path d="M3046 1548 c-11 -139 13 -218 70 -232 34 -9 36 -6 23 31 -26 75 34
153 96 125 34 -16 32 -3 -11 65 -59 93 -71 103 -125 103 l-47 0 -6 -92z"/>
<path d="M4106 1551 c7 -25 17 -60 21 -78 l8 -32 26 47 26 47 -47 31 -47 31
13 -46z"/>
<path d="M4300 1560 c0 -5 7 -10 16 -10 8 0 12 5 9 10 -3 6 -10 10 -16 10 -5
0 -9 -4 -9 -10z"/>
<path d="M3181 1431 c-17 -11 -7 -61 12 -61 6 1 23 10 36 20 19 17 21 23 11
35 -14 17 -38 19 -59 6z"/>
<path d="M4950 1367 c-12 -23 -36 -57 -53 -74 -17 -18 -28 -35 -25 -39 8 -7
87 33 116 59 27 25 27 34 4 69 l-18 28 -24 -43z"/>
<path d="M5010 1244 c-84 -29 -116 -50 -60 -39 36 7 163 63 145 64 -5 0 -44
-11 -85 -25z"/>
<path d="M3828 1223 l-26 -28 34 -22 34 -22 16 30 c14 28 14 32 -2 50 -22 25
-25 24 -56 -8z"/>
<path d="M3180 1200 c0 -13 -49 -38 -124 -62 -50 -16 -77 -19 -146 -14 -47 3
-94 1 -105 -3 -19 -8 -18 -10 8 -20 39 -15 133 -14 189 4 35 10 62 12 101 5
63 -10 167 8 167 29 0 7 -76 71 -84 71 -3 0 -6 -4 -6 -10z"/>
<path d="M4418 1056 c-42 -18 -107 -42 -143 -51 -57 -16 -72 -17 -102 -6 -46
17 -66 0 -29 -24 41 -27 130 -15 260 35 73 27 129 42 168 44 70 4 80 10 37 25
-55 19 -110 13 -191 -23z"/>
</g>
</svg>
